<svg width="129" height="160" viewBox="0 0 129 160" fill="none" xmlns="http://www.w3.org/2000/svg">
<path d="M8.24822 15.3551C6.97929 15.3551 5.88554 15.0545 4.96697 14.4531C4.04841 13.8471 3.34055 12.9782 2.84339 11.8466C2.34624 10.7102 2.10002 9.34422 2.10476 7.74858C2.10949 6.15294 2.35807 4.79877 2.8505 3.68608C3.34766 2.56865 4.05315 1.71875 4.96697 1.13636C5.88554 0.549242 6.97929 0.255681 8.24822 0.255681C9.51716 0.255681 10.6109 0.549242 11.5295 1.13636C12.4528 1.71875 13.163 2.56865 13.6602 3.68608C14.1573 4.8035 14.4035 6.15767 14.3988 7.74858C14.3988 9.34896 14.1502 10.7173 13.6531 11.8537C13.1559 12.9901 12.448 13.8589 11.5295 14.4602C10.6156 15.0568 9.5219 15.3551 8.24822 15.3551ZM8.24822 12.4787C9.0058 12.4787 9.61896 12.0928 10.0877 11.321C10.5565 10.5445 10.7885 9.35369 10.7837 7.74858C10.7837 6.69744 10.6772 5.83097 10.4641 5.14915C10.2511 4.46259 9.95514 3.95123 9.57635 3.61506C9.19756 3.27888 8.75485 3.1108 8.24822 3.1108C7.49538 3.1108 6.88696 3.49195 6.42294 4.25426C5.95893 5.01184 5.72455 6.17661 5.71982 7.74858C5.71508 8.81392 5.81688 9.69697 6.02521 10.3977C6.23828 11.0985 6.53658 11.6217 6.9201 11.9673C7.30362 12.3082 7.74633 12.4787 8.24822 12.4787ZM27.435 0.454545V15H23.9265V3.7358H23.8413L20.5884 5.72443V2.68466L24.1751 0.454545H27.435ZM41.6733 0.454545V15H38.1648V3.7358H38.0795L34.8267 5.72443V2.68466L38.4134 0.454545H41.6733ZM55.9116 0.454545V15H52.4031V3.7358H52.3178L49.065 5.72443V2.68466L52.6516 0.454545H55.9116ZM73.7365 15.3551C72.4676 15.3551 71.3738 15.0545 70.4553 14.4531C69.5367 13.8471 68.8288 12.9782 68.3317 11.8466C67.8345 10.7102 67.5883 9.34422 67.593 7.74858C67.5978 6.15294 67.8464 4.79877 68.3388 3.68608C68.8359 2.56865 69.5414 1.71875 70.4553 1.13636C71.3738 0.549242 72.4676 0.255681 73.7365 0.255681C75.0054 0.255681 76.0992 0.549242 77.0178 1.13636C77.9411 1.71875 78.6513 2.56865 79.1484 3.68608C79.6456 4.8035 79.8918 6.15767 79.8871 7.74858C79.8871 9.34896 79.6385 10.7173 79.1413 11.8537C78.6442 12.9901 77.9363 13.8589 77.0178 14.4602C76.1039 15.0568 75.0102 15.3551 73.7365 15.3551ZM73.7365 12.4787C74.4941 12.4787 75.1072 12.0928 75.576 11.321C76.0447 10.5445 76.2768 9.35369 76.272 7.74858C76.272 6.69744 76.1655 5.83097 75.9524 5.14915C75.7393 4.46259 75.4434 3.95123 75.0646 3.61506C74.6858 3.27888 74.2431 3.1108 73.7365 3.1108C72.9837 3.1108 72.3752 3.49195 71.9112 4.25426C71.4472 5.01184 71.2128 6.17661 71.2081 7.74858C71.2034 8.81392 71.3052 9.69697 71.5135 10.3977C71.7266 11.0985 72.0249 11.6217 72.4084 11.9673C72.7919 12.3082 73.2346 12.4787 73.7365 12.4787ZM92.9233 0.454545V15H89.4148V3.7358H89.3295L86.0767 5.72443V2.68466L89.6634 0.454545H92.9233ZM107.162 0.454545V15H103.653V3.7358H103.568L100.315 5.72443V2.68466L103.902 0.454545H107.162ZM125.697 0.454545V15H122.188V3.7358H122.103L118.85 5.72443V2.68466L122.437 0.454545H125.697ZM8.30682 39.3551C7.03788 39.3551 5.94413 39.0545 5.02557 38.4531C4.10701 37.8471 3.39915 36.9782 2.90199 35.8466C2.40483 34.7102 2.15862 33.3442 2.16335 31.7486C2.16809 30.1529 2.41667 28.7988 2.90909 27.6861C3.40625 26.5687 4.11174 25.7187 5.02557 25.1364C5.94413 24.5492 7.03788 24.2557 8.30682 24.2557C9.57576 24.2557 10.6695 24.5492 11.5881 25.1364C12.5114 25.7187 13.2216 26.5687 13.7188 27.6861C14.2159 28.8035 14.4621 30.1577 14.4574 31.7486C14.4574 33.349 14.2088 34.7173 13.7116 35.8537C13.2145 36.9901 12.5066 37.8589 11.5881 38.4602C10.6742 39.0568 9.58049 39.3551 8.30682 39.3551ZM8.30682 36.4787C9.06439 36.4787 9.67756 36.0928 10.1463 35.321C10.6151 34.5445 10.8471 33.3537 10.8423 31.7486C10.8423 30.6974 10.7358 29.831 10.5227 29.1491C10.3097 28.4626 10.0137 27.9512 9.63494 27.6151C9.25616 27.2789 8.81345 27.1108 8.30682 27.1108C7.55398 27.1108 6.94555 27.492 6.48153 28.2543C6.01752 29.0118 5.78314 30.1766 5.77841 31.7486C5.77367 32.8139 5.87547 33.697 6.08381 34.3977C6.29688 35.0985 6.59517 35.6217 6.97869 35.9673C7.36222 36.3082 7.80492 36.4787 8.30682 36.4787ZM27.4936 24.4545V39H23.9851V27.7358H23.8999L20.647 29.7244V26.6847L24.2337 24.4545H27.4936ZM41.7319 24.4545V39H38.2234V27.7358H38.1381L34.8853 29.7244V26.6847L38.4719 24.4545H41.7319ZM55.2599 39.3551C53.991 39.3551 52.8973 39.0545 51.9787 38.4531C51.0601 37.8471 50.3523 36.9782 49.8551 35.8466C49.358 34.7102 49.1117 33.3442 49.1165 31.7486C49.1212 30.1529 49.3698 28.7988 49.8622 27.6861C50.3594 26.5687 51.0649 25.7187 51.9787 25.1364C52.8973 24.5492 53.991 24.2557 55.2599 24.2557C56.5289 24.2557 57.6226 24.5492 58.5412 25.1364C59.4645 25.7187 60.1747 26.5687 60.6719 27.6861C61.169 28.8035 61.4152 30.1577 61.4105 31.7486C61.4105 33.349 61.1619 34.7173 60.6648 35.8537C60.1676 36.9901 59.4598 37.8589 58.5412 38.4602C57.6274 39.0568 56.5336 39.3551 55.2599 39.3551ZM55.2599 36.4787C56.0175 36.4787 56.6307 36.0928 57.0994 35.321C57.5682 34.5445 57.8002 33.3537 57.7955 31.7486C57.7955 30.6974 57.6889 29.831 57.4759 29.1491C57.2628 28.4626 56.9669 27.9512 56.5881 27.6151C56.2093 27.2789 55.7666 27.1108 55.2599 27.1108C54.5071 27.1108 53.8987 27.492 53.4347 28.2543C52.9706 29.0118 52.7363 30.1766 52.7315 31.7486C52.7268 32.8139 52.8286 33.697 53.0369 34.3977C53.25 35.0985 53.5483 35.6217 53.9318 35.9673C54.3153 36.3082 54.758 36.4787 55.2599 36.4787ZM73.7365 39.3551C72.4676 39.3551 71.3738 39.0545 70.4553 38.4531C69.5367 37.8471 68.8288 36.9782 68.3317 35.8466C67.8345 34.7102 67.5883 33.3442 67.593 31.7486C67.5978 30.1529 67.8464 28.7988 68.3388 27.6861C68.8359 26.5687 69.5414 25.7187 70.4553 25.1364C71.3738 24.5492 72.4676 24.2557 73.7365 24.2557C75.0054 24.2557 76.0992 24.5492 77.0178 25.1364C77.9411 25.7187 78.6513 26.5687 79.1484 27.6861C79.6456 28.8035 79.8918 30.1577 79.8871 31.7486C79.8871 33.349 79.6385 34.7173 79.1413 35.8537C78.6442 36.9901 77.9363 37.8589 77.0178 38.4602C76.1039 39.0568 75.0102 39.3551 73.7365 39.3551ZM73.7365 36.4787C74.4941 36.4787 75.1072 36.0928 75.576 35.321C76.0447 34.5445 76.2768 33.3537 76.272 31.7486C76.272 30.6974 76.1655 29.831 75.9524 29.1491C75.7393 28.4626 75.4434 27.9512 75.0646 27.6151C74.6858 27.2789 74.2431 27.1108 73.7365 27.1108C72.9837 27.1108 72.3752 27.492 71.9112 28.2543C71.4472 29.0118 71.2128 30.1766 71.2081 31.7486C71.2034 32.8139 71.3052 33.697 71.5135 34.3977C71.7266 35.0985 72.0249 35.6217 72.4084 35.9673C72.7919 36.3082 73.2346 36.4787 73.7365 36.4787ZM92.9233 24.4545V39H89.4148V27.7358H89.3295L86.0767 29.7244V26.6847L89.6634 24.4545H92.9233ZM106.451 39.3551C105.182 39.3551 104.089 39.0545 103.17 38.4531C102.252 37.8471 101.544 36.9782 101.047 35.8466C100.549 34.7102 100.303 33.3442 100.308 31.7486C100.313 30.1529 100.561 28.7988 101.054 27.6861C101.551 26.5687 102.256 25.7187 103.17 25.1364C104.089 24.5492 105.182 24.2557 106.451 24.2557C107.72 24.2557 108.814 24.5492 109.733 25.1364C110.656 25.7187 111.366 26.5687 111.863 27.6861C112.36 28.8035 112.607 30.1577 112.602 31.7486C112.602 33.349 112.353 34.7173 111.856 35.8537C111.359 36.9901 110.651 37.8589 109.733 38.4602C108.819 39.0568 107.725 39.3551 106.451 39.3551ZM106.451 36.4787C107.209 36.4787 107.822 36.0928 108.291 35.321C108.76 34.5445 108.992 33.3537 108.987 31.7486C108.987 30.6974 108.88 29.831 108.667 29.1491C108.454 28.4626 108.158 27.9512 107.779 27.6151C107.401 27.2789 106.958 27.1108 106.451 27.1108C105.699 27.1108 105.09 27.492 104.626 28.2543C104.162 29.0118 103.928 30.1766 103.923 31.7486C103.918 32.8139 104.02 33.697 104.228 34.3977C104.441 35.0985 104.74 35.6217 105.123 35.9673C105.507 36.3082 105.949 36.4787 106.451 36.4787ZM125.638 24.4545V39H122.13V27.7358H122.044L118.792 29.7244V26.6847L122.378 24.4545H125.638ZM6.15838 63.3551C4.88944 63.3551 3.79569 63.0545 2.87713 62.4531C1.95857 61.8471 1.25071 60.9782 0.753551 59.8466C0.256392 58.7102 0.0101799 57.3442 0.0149148 55.7486C0.0196497 54.1529 0.268229 52.7988 0.760653 51.6861C1.25781 50.5687 1.96331 49.7187 2.87713 49.1364C3.79569 48.5492 4.88944 48.2557 6.15838 48.2557C7.42732 48.2557 8.52107 48.5492 9.43963 49.1364C10.3629 49.7187 11.0732 50.5687 11.5703 51.6861C12.0675 52.8035 12.3137 54.1577 12.3089 55.7486C12.3089 57.349 12.0604 58.7173 11.5632 59.8537C11.0661 60.9901 10.3582 61.8589 9.43963 62.4602C8.52581 63.0568 7.43206 63.3551 6.15838 63.3551ZM6.15838 60.4787C6.91596 60.4787 7.52912 60.0928 7.99787 59.321C8.46662 58.5445 8.69863 57.3537 8.69389 55.7486C8.69389 54.6974 8.58736 53.831 8.37429 53.1491C8.16122 52.4626 7.86529 51.9512 7.48651 51.6151C7.10772 51.2789 6.66501 51.1108 6.15838 51.1108C5.40554 51.1108 4.79711 51.492 4.3331 52.2543C3.86908 53.0118 3.63471 54.1766 3.62997 55.7486C3.62524 56.8139 3.72704 57.697 3.93537 58.3977C4.14844 59.0985 4.44673 59.6217 4.83026 59.9673C5.21378 60.3082 5.65649 60.4787 6.15838 60.4787ZM25.3452 48.4545V63H21.8366V51.7358H21.7514L18.4986 53.7244V50.6847L22.0852 48.4545H25.3452ZM39.5835 48.4545V63H36.0749V51.7358H35.9897L32.7369 53.7244V50.6847L36.3235 48.4545H39.5835ZM53.1115 63.3551C51.8426 63.3551 50.7488 63.0545 49.8303 62.4531C48.9117 61.8471 48.2038 60.9782 47.7067 59.8466C47.2095 58.7102 46.9633 57.3442 46.968 55.7486C46.9728 54.1529 47.2214 52.7988 47.7138 51.6861C48.2109 50.5687 48.9164 49.7187 49.8303 49.1364C50.7488 48.5492 51.8426 48.2557 53.1115 48.2557C54.3804 48.2557 55.4742 48.5492 56.3928 49.1364C57.3161 49.7187 58.0263 50.5687 58.5234 51.6861C59.0206 52.8035 59.2668 54.1577 59.2621 55.7486C59.2621 57.349 59.0135 58.7173 58.5163 59.8537C58.0192 60.9901 57.3113 61.8589 56.3928 62.4602C55.4789 63.0568 54.3852 63.3551 53.1115 63.3551ZM53.1115 60.4787C53.8691 60.4787 54.4822 60.0928 54.951 59.321C55.4197 58.5445 55.6518 57.3537 55.647 55.7486C55.647 54.6974 55.5405 53.831 55.3274 53.1491C55.1143 52.4626 54.8184 51.9512 54.4396 51.6151C54.0608 51.2789 53.6181 51.1108 53.1115 51.1108C52.3587 51.1108 51.7502 51.492 51.2862 52.2543C50.8222 53.0118 50.5878 54.1766 50.5831 55.7486C50.5784 56.8139 50.6802 57.697 50.8885 58.3977C51.1016 59.0985 51.3999 59.6217 51.7834 59.9673C52.1669 60.3082 52.6096 60.4787 53.1115 60.4787ZM72.2983 48.4545V63H68.7898V51.7358H68.7045L65.4517 53.7244V50.6847L69.0384 48.4545H72.2983ZM90.8335 48.4545V63H87.3249V51.7358H87.2397L83.9869 53.7244V50.6847L87.5735 48.4545H90.8335ZM104.362 63.3551C103.093 63.3551 101.999 63.0545 101.08 62.4531C100.162 61.8471 99.4538 60.9782 98.9567 59.8466C98.4595 58.7102 98.2133 57.3442 98.218 55.7486C98.2228 54.1529 98.4714 52.7988 98.9638 51.6861C99.4609 50.5687 100.166 49.7187 101.08 49.1364C101.999 48.5492 103.093 48.2557 104.362 48.2557C105.63 48.2557 106.724 48.5492 107.643 49.1364C108.566 49.7187 109.276 50.5687 109.773 51.6861C110.271 52.8035 110.517 54.1577 110.512 55.7486C110.512 57.349 110.263 58.7173 109.766 59.8537C109.269 60.9901 108.561 61.8589 107.643 62.4602C106.729 63.0568 105.635 63.3551 104.362 63.3551ZM104.362 60.4787C105.119 60.4787 105.732 60.0928 106.201 59.321C106.67 58.5445 106.902 57.3537 106.897 55.7486C106.897 54.6974 106.79 53.831 106.577 53.1491C106.364 52.4626 106.068 51.9512 105.69 51.6151C105.311 51.2789 104.868 51.1108 104.362 51.1108C103.609 51.1108 103 51.492 102.536 52.2543C102.072 53.0118 101.838 54.1766 101.833 55.7486C101.828 56.8139 101.93 57.697 102.138 58.3977C102.352 59.0985 102.65 59.6217 103.033 59.9673C103.417 60.3082 103.86 60.4787 104.362 60.4787ZM122.838 63.3551C121.569 63.3551 120.475 63.0545 119.557 62.4531C118.638 61.8471 117.93 60.9782 117.433 59.8466C116.936 58.7102 116.69 57.3442 116.695 55.7486C116.699 54.1529 116.948 52.7988 117.44 51.6861C117.938 50.5687 118.643 49.7187 119.557 49.1364C120.475 48.5492 121.569 48.2557 122.838 48.2557C124.107 48.2557 125.201 48.5492 126.119 49.1364C127.043 49.7187 127.753 50.5687 128.25 51.6861C128.747 52.8035 128.993 54.1577 128.989 55.7486C128.989 57.349 128.74 58.7173 128.243 59.8537C127.746 60.9901 127.038 61.8589 126.119 62.4602C125.205 63.0568 124.112 63.3551 122.838 63.3551ZM122.838 60.4787C123.596 60.4787 124.209 60.0928 124.678 59.321C125.146 58.5445 125.378 57.3537 125.374 55.7486C125.374 54.6974 125.267 53.831 125.054 53.1491C124.841 52.4626 124.545 51.9512 124.166 51.6151C123.787 51.2789 123.345 51.1108 122.838 51.1108C122.085 51.1108 121.477 51.492 121.013 52.2543C120.549 53.0118 120.314 54.1766 120.31 55.7486C120.305 56.8139 120.407 57.697 120.615 58.3977C120.828 59.0985 121.126 59.6217 121.51 59.9673C121.893 60.3082 122.336 60.4787 122.838 60.4787ZM8.30682 87.3551C7.03788 87.3551 5.94413 87.0545 5.02557 86.4531C4.10701 85.8471 3.39915 84.9782 2.90199 83.8466C2.40483 82.7102 2.15862 81.3442 2.16335 79.7486C2.16809 78.1529 2.41667 76.7988 2.90909 75.6861C3.40625 74.5687 4.11174 73.7187 5.02557 73.1364C5.94413 72.5492 7.03788 72.2557 8.30682 72.2557C9.57576 72.2557 10.6695 72.5492 11.5881 73.1364C12.5114 73.7187 13.2216 74.5687 13.7188 75.6861C14.2159 76.8035 14.4621 78.1577 14.4574 79.7486C14.4574 81.349 14.2088 82.7173 13.7116 83.8537C13.2145 84.9901 12.5066 85.8589 11.5881 86.4602C10.6742 87.0568 9.58049 87.3551 8.30682 87.3551ZM8.30682 84.4787C9.06439 84.4787 9.67756 84.0928 10.1463 83.321C10.6151 82.5445 10.8471 81.3537 10.8423 79.7486C10.8423 78.6974 10.7358 77.831 10.5227 77.1491C10.3097 76.4626 10.0137 75.9512 9.63494 75.6151C9.25616 75.2789 8.81345 75.1108 8.30682 75.1108C7.55398 75.1108 6.94555 75.492 6.48153 76.2543C6.01752 77.0118 5.78314 78.1766 5.77841 79.7486C5.77367 80.8139 5.87547 81.697 6.08381 82.3977C6.29688 83.0985 6.59517 83.6217 6.97869 83.9673C7.36222 84.3082 7.80492 84.4787 8.30682 84.4787ZM27.4936 72.4545V87H23.9851V75.7358H23.8999L20.647 77.7244V74.6847L24.2337 72.4545H27.4936ZM41.7319 72.4545V87H38.2234V75.7358H38.1381L34.8853 77.7244V74.6847L38.4719 72.4545H41.7319ZM55.2599 87.3551C53.991 87.3551 52.8973 87.0545 51.9787 86.4531C51.0601 85.8471 50.3523 84.9782 49.8551 83.8466C49.358 82.7102 49.1117 81.3442 49.1165 79.7486C49.1212 78.1529 49.3698 76.7988 49.8622 75.6861C50.3594 74.5687 51.0649 73.7187 51.9787 73.1364C52.8973 72.5492 53.991 72.2557 55.2599 72.2557C56.5289 72.2557 57.6226 72.5492 58.5412 73.1364C59.4645 73.7187 60.1747 74.5687 60.6719 75.6861C61.169 76.8035 61.4152 78.1577 61.4105 79.7486C61.4105 81.349 61.1619 82.7173 60.6648 83.8537C60.1676 84.9901 59.4598 85.8589 58.5412 86.4602C57.6274 87.0568 56.5336 87.3551 55.2599 87.3551ZM55.2599 84.4787C56.0175 84.4787 56.6307 84.0928 57.0994 83.321C57.5682 82.5445 57.8002 81.3537 57.7955 79.7486C57.7955 78.6974 57.6889 77.831 57.4759 77.1491C57.2628 76.4626 56.9669 75.9512 56.5881 75.6151C56.2093 75.2789 55.7666 75.1108 55.2599 75.1108C54.5071 75.1108 53.8987 75.492 53.4347 76.2543C52.9706 77.0118 52.7363 78.1766 52.7315 79.7486C52.7268 80.8139 52.8286 81.697 53.0369 82.3977C53.25 83.0985 53.5483 83.6217 53.9318 83.9673C54.3153 84.3082 54.758 84.4787 55.2599 84.4787ZM73.7365 87.3551C72.4676 87.3551 71.3738 87.0545 70.4553 86.4531C69.5367 85.8471 68.8288 84.9782 68.3317 83.8466C67.8345 82.7102 67.5883 81.3442 67.593 79.7486C67.5978 78.1529 67.8464 76.7988 68.3388 75.6861C68.8359 74.5687 69.5414 73.7187 70.4553 73.1364C71.3738 72.5492 72.4676 72.2557 73.7365 72.2557C75.0054 72.2557 76.0992 72.5492 77.0178 73.1364C77.9411 73.7187 78.6513 74.5687 79.1484 75.6861C79.6456 76.8035 79.8918 78.1577 79.8871 79.7486C79.8871 81.349 79.6385 82.7173 79.1413 83.8537C78.6442 84.9901 77.9363 85.8589 77.0178 86.4602C76.1039 87.0568 75.0102 87.3551 73.7365 87.3551ZM73.7365 84.4787C74.4941 84.4787 75.1072 84.0928 75.576 83.321C76.0447 82.5445 76.2768 81.3537 76.272 79.7486C76.272 78.6974 76.1655 77.831 75.9524 77.1491C75.7393 76.4626 75.4434 75.9512 75.0646 75.6151C74.6858 75.2789 74.2431 75.1108 73.7365 75.1108C72.9837 75.1108 72.3752 75.492 71.9112 76.2543C71.4472 77.0118 71.2128 78.1766 71.2081 79.7486C71.2034 80.8139 71.3052 81.697 71.5135 82.3977C71.7266 83.0985 72.0249 83.6217 72.4084 83.9673C72.7919 84.3082 73.2346 84.4787 73.7365 84.4787ZM92.2131 87.3551C90.9441 87.3551 89.8504 87.0545 88.9318 86.4531C88.0133 85.8471 87.3054 84.9782 86.8082 83.8466C86.3111 82.7102 86.0649 81.3442 86.0696 79.7486C86.0743 78.1529 86.3229 76.7988 86.8153 75.6861C87.3125 74.5687 88.018 73.7187 88.9318 73.1364C89.8504 72.5492 90.9441 72.2557 92.2131 72.2557C93.482 72.2557 94.5758 72.5492 95.4943 73.1364C96.4176 73.7187 97.1278 74.5687 97.625 75.6861C98.1222 76.8035 98.3684 78.1577 98.3636 79.7486C98.3636 81.349 98.1151 82.7173 97.6179 83.8537C97.1207 84.9901 96.4129 85.8589 95.4943 86.4602C94.5805 87.0568 93.4867 87.3551 92.2131 87.3551ZM92.2131 84.4787C92.9706 84.4787 93.5838 84.0928 94.0526 83.321C94.5213 82.5445 94.7533 81.3537 94.7486 79.7486C94.7486 78.6974 94.642 77.831 94.429 77.1491C94.2159 76.4626 93.92 75.9512 93.5412 75.6151C93.1624 75.2789 92.7197 75.1108 92.2131 75.1108C91.4602 75.1108 90.8518 75.492 90.3878 76.2543C89.9238 77.0118 89.6894 78.1766 89.6847 79.7486C89.6799 80.8139 89.7817 81.697 89.9901 82.3977C90.2031 83.0985 90.5014 83.6217 90.8849 83.9673C91.2685 84.3082 91.7112 84.4787 92.2131 84.4787ZM111.4 72.4545V87H107.891V75.7358H107.806L104.553 77.7244V74.6847L108.14 72.4545H111.4ZM125.638 72.4545V87H122.13V75.7358H122.044L118.792 77.7244V74.6847L122.378 72.4545H125.638ZM8.24822 111.355C6.97929 111.355 5.88554 111.054 4.96697 110.453C4.04841 109.847 3.34055 108.978 2.84339 107.847C2.34624 106.71 2.10002 105.344 2.10476 103.749C2.10949 102.153 2.35807 100.799 2.8505 99.6861C3.34766 98.5687 4.05315 97.7187 4.96697 97.1364C5.88554 96.5492 6.97929 96.2557 8.24822 96.2557C9.51716 96.2557 10.6109 96.5492 11.5295 97.1364C12.4528 97.7187 13.163 98.5687 13.6602 99.6861C14.1573 100.804 14.4035 102.158 14.3988 103.749C14.3988 105.349 14.1502 106.717 13.6531 107.854C13.1559 108.99 12.448 109.859 11.5295 110.46C10.6156 111.057 9.5219 111.355 8.24822 111.355ZM8.24822 108.479C9.0058 108.479 9.61896 108.093 10.0877 107.321C10.5565 106.545 10.7885 105.354 10.7837 103.749C10.7837 102.697 10.6772 101.831 10.4641 101.149C10.2511 100.463 9.95514 99.9512 9.57635 99.6151C9.19756 99.2789 8.75485 99.1108 8.24822 99.1108C7.49538 99.1108 6.88696 99.492 6.42294 100.254C5.95893 101.012 5.72455 102.177 5.71982 103.749C5.71508 104.814 5.81688 105.697 6.02521 106.398C6.23828 107.098 6.53658 107.622 6.9201 107.967C7.30362 108.308 7.74633 108.479 8.24822 108.479ZM27.435 96.4545V111H23.9265V99.7358H23.8413L20.5884 101.724V98.6847L24.1751 96.4545H27.435ZM41.6733 96.4545V111H38.1648V99.7358H38.0795L34.8267 101.724V98.6847L38.4134 96.4545H41.6733ZM55.2013 111.355C53.9324 111.355 52.8387 111.054 51.9201 110.453C51.0015 109.847 50.2937 108.978 49.7965 107.847C49.2994 106.71 49.0531 105.344 49.0579 103.749C49.0626 102.153 49.3112 100.799 49.8036 99.6861C50.3008 98.5687 51.0063 97.7187 51.9201 97.1364C52.8387 96.5492 53.9324 96.2557 55.2013 96.2557C56.4703 96.2557 57.564 96.5492 58.4826 97.1364C59.4059 97.7187 60.1161 98.5687 60.6133 99.6861C61.1104 100.804 61.3567 102.158 61.3519 103.749C61.3519 105.349 61.1033 106.717 60.6062 107.854C60.109 108.99 59.4012 109.859 58.4826 110.46C57.5688 111.057 56.475 111.355 55.2013 111.355ZM55.2013 108.479C55.9589 108.479 56.5721 108.093 57.0408 107.321C57.5096 106.545 57.7416 105.354 57.7369 103.749C57.7369 102.697 57.6303 101.831 57.4173 101.149C57.2042 100.463 56.9083 99.9512 56.5295 99.6151C56.1507 99.2789 55.708 99.1108 55.2013 99.1108C54.4485 99.1108 53.8401 99.492 53.3761 100.254C52.9121 101.012 52.6777 102.177 52.6729 103.749C52.6682 104.814 52.77 105.697 52.9783 106.398C53.1914 107.098 53.4897 107.622 53.8732 107.967C54.2567 108.308 54.6995 108.479 55.2013 108.479ZM78.685 96.4545V111H75.1765V99.7358H75.0913L71.8384 101.724V98.6847L75.4251 96.4545H78.685ZM92.9233 96.4545V111H89.4148V99.7358H89.3295L86.0767 101.724V98.6847L89.6634 96.4545H92.9233ZM111.458 96.4545V111H107.95V99.7358H107.865L104.612 101.724V98.6847L108.199 96.4545H111.458ZM125.697 96.4545V111H122.188V99.7358H122.103L118.85 101.724V98.6847L122.437 96.4545H125.697ZM8.27752 135.355C7.00858 135.355 5.91483 135.054 4.99627 134.453C4.07771 133.847 3.36985 132.978 2.87269 131.847C2.37553 130.71 2.12932 129.344 2.13406 127.749C2.13879 126.153 2.38737 124.799 2.87979 123.686C3.37695 122.569 4.08245 121.719 4.99627 121.136C5.91483 120.549 7.00858 120.256 8.27752 120.256C9.54646 120.256 10.6402 120.549 11.5588 121.136C12.4821 121.719 13.1923 122.569 13.6895 123.686C14.1866 124.804 14.4328 126.158 14.4281 127.749C14.4281 129.349 14.1795 130.717 13.6824 131.854C13.1852 132.99 12.4773 133.859 11.5588 134.46C10.6449 135.057 9.5512 135.355 8.27752 135.355ZM8.27752 132.479C9.0351 132.479 9.64826 132.093 10.117 131.321C10.5858 130.545 10.8178 129.354 10.813 127.749C10.813 126.697 10.7065 125.831 10.4934 125.149C10.2804 124.463 9.98443 123.951 9.60565 123.615C9.22686 123.279 8.78415 123.111 8.27752 123.111C7.52468 123.111 6.91625 123.492 6.45224 124.254C5.98822 125.012 5.75385 126.177 5.74911 127.749C5.74438 128.814 5.84618 129.697 6.05451 130.398C6.26758 131.098 6.56587 131.622 6.9494 131.967C7.33292 132.308 7.77563 132.479 8.27752 132.479ZM27.4643 120.455V135H23.9558V123.736H23.8706L20.6177 125.724V122.685L24.2044 120.455H27.4643ZM41.7026 120.455V135H38.1941V123.736H38.1088L34.856 125.724V122.685L38.4426 120.455H41.7026ZM55.2306 135.355C53.9617 135.355 52.868 135.054 51.9494 134.453C51.0308 133.847 50.323 132.978 49.8258 131.847C49.3287 130.71 49.0824 129.344 49.0872 127.749C49.0919 126.153 49.3405 124.799 49.8329 123.686C50.3301 122.569 51.0356 121.719 51.9494 121.136C52.868 120.549 53.9617 120.256 55.2306 120.256C56.4996 120.256 57.5933 120.549 58.5119 121.136C59.4352 121.719 60.1454 122.569 60.6426 123.686C61.1397 124.804 61.3859 126.158 61.3812 127.749C61.3812 129.349 61.1326 130.717 60.6355 131.854C60.1383 132.99 59.4305 133.859 58.5119 134.46C57.5981 135.057 56.5043 135.355 55.2306 135.355ZM55.2306 132.479C55.9882 132.479 56.6014 132.093 57.0701 131.321C57.5389 130.545 57.7709 129.354 57.7662 127.749C57.7662 126.697 57.6596 125.831 57.4466 125.149C57.2335 124.463 56.9376 123.951 56.5588 123.615C56.18 123.279 55.7373 123.111 55.2306 123.111C54.4778 123.111 53.8694 123.492 53.4054 124.254C52.9413 125.012 52.707 126.177 52.7022 127.749C52.6975 128.814 52.7993 129.697 53.0076 130.398C53.2207 131.098 53.519 131.622 53.9025 131.967C54.286 132.308 54.7288 132.479 55.2306 132.479ZM78.7143 120.455V135H75.2058V123.736H75.1206L71.8677 125.724V122.685L75.4544 120.455H78.7143ZM92.9526 120.455V135H89.4441V123.736H89.3588L86.106 125.724V122.685L89.6926 120.455H92.9526ZM106.481 135.355C105.212 135.355 104.118 135.054 103.199 134.453C102.281 133.847 101.573 132.978 101.076 131.847C100.579 130.71 100.332 129.344 100.337 127.749C100.342 126.153 100.59 124.799 101.083 123.686C101.58 122.569 102.286 121.719 103.199 121.136C104.118 120.549 105.212 120.256 106.481 120.256C107.75 120.256 108.843 120.549 109.762 121.136C110.685 121.719 111.395 122.569 111.893 123.686C112.39 124.804 112.636 126.158 112.631 127.749C112.631 129.349 112.383 130.717 111.885 131.854C111.388 132.99 110.68 133.859 109.762 134.46C108.848 135.057 107.754 135.355 106.481 135.355ZM106.481 132.479C107.238 132.479 107.851 132.093 108.32 131.321C108.789 130.545 109.021 129.354 109.016 127.749C109.016 126.697 108.91 125.831 108.697 125.149C108.483 124.463 108.188 123.951 107.809 123.615C107.43 123.279 106.987 123.111 106.481 123.111C105.728 123.111 105.119 123.492 104.655 124.254C104.191 125.012 103.957 126.177 103.952 127.749C103.948 128.814 104.049 129.697 104.258 130.398C104.471 131.098 104.769 131.622 105.153 131.967C105.536 132.308 105.979 132.479 106.481 132.479ZM125.667 120.455V135H122.159V123.736H122.074L118.821 125.724V122.685L122.407 120.455H125.667ZM8.30682 159.355C7.03788 159.355 5.94413 159.054 5.02557 158.453C4.10701 157.847 3.39915 156.978 2.90199 155.847C2.40483 154.71 2.15862 153.344 2.16335 151.749C2.16809 150.153 2.41667 148.799 2.90909 147.686C3.40625 146.569 4.11174 145.719 5.02557 145.136C5.94413 144.549 7.03788 144.256 8.30682 144.256C9.57576 144.256 10.6695 144.549 11.5881 145.136C12.5114 145.719 13.2216 146.569 13.7188 147.686C14.2159 148.804 14.4621 150.158 14.4574 151.749C14.4574 153.349 14.2088 154.717 13.7116 155.854C13.2145 156.99 12.5066 157.859 11.5881 158.46C10.6742 159.057 9.58049 159.355 8.30682 159.355ZM8.30682 156.479C9.06439 156.479 9.67756 156.093 10.1463 155.321C10.6151 154.545 10.8471 153.354 10.8423 151.749C10.8423 150.697 10.7358 149.831 10.5227 149.149C10.3097 148.463 10.0137 147.951 9.63494 147.615C9.25616 147.279 8.81345 147.111 8.30682 147.111C7.55398 147.111 6.94555 147.492 6.48153 148.254C6.01752 149.012 5.78314 150.177 5.77841 151.749C5.77367 152.814 5.87547 153.697 6.08381 154.398C6.29688 155.098 6.59517 155.622 6.97869 155.967C7.36222 156.308 7.80492 156.479 8.30682 156.479ZM27.4936 144.455V159H23.9851V147.736H23.8999L20.647 149.724V146.685L24.2337 144.455H27.4936ZM41.7319 144.455V159H38.2234V147.736H38.1381L34.8853 149.724V146.685L38.4719 144.455H41.7319ZM55.2599 159.355C53.991 159.355 52.8973 159.054 51.9787 158.453C51.0601 157.847 50.3523 156.978 49.8551 155.847C49.358 154.71 49.1117 153.344 49.1165 151.749C49.1212 150.153 49.3698 148.799 49.8622 147.686C50.3594 146.569 51.0649 145.719 51.9787 145.136C52.8973 144.549 53.991 144.256 55.2599 144.256C56.5289 144.256 57.6226 144.549 58.5412 145.136C59.4645 145.719 60.1747 146.569 60.6719 147.686C61.169 148.804 61.4152 150.158 61.4105 151.749C61.4105 153.349 61.1619 154.717 60.6648 155.854C60.1676 156.99 59.4598 157.859 58.5412 158.46C57.6274 159.057 56.5336 159.355 55.2599 159.355ZM55.2599 156.479C56.0175 156.479 56.6307 156.093 57.0994 155.321C57.5682 154.545 57.8002 153.354 57.7955 151.749C57.7955 150.697 57.6889 149.831 57.4759 149.149C57.2628 148.463 56.9669 147.951 56.5881 147.615C56.2093 147.279 55.7666 147.111 55.2599 147.111C54.5071 147.111 53.8987 147.492 53.4347 148.254C52.9706 149.012 52.7363 150.177 52.7315 151.749C52.7268 152.814 52.8286 153.697 53.0369 154.398C53.25 155.098 53.5483 155.622 53.9318 155.967C54.3153 156.308 54.758 156.479 55.2599 156.479ZM73.7365 159.355C72.4676 159.355 71.3738 159.054 70.4553 158.453C69.5367 157.847 68.8288 156.978 68.3317 155.847C67.8345 154.71 67.5883 153.344 67.593 151.749C67.5978 150.153 67.8464 148.799 68.3388 147.686C68.8359 146.569 69.5414 145.719 70.4553 145.136C71.3738 144.549 72.4676 144.256 73.7365 144.256C75.0054 144.256 76.0992 144.549 77.0178 145.136C77.9411 145.719 78.6513 146.569 79.1484 147.686C79.6456 148.804 79.8918 150.158 79.8871 151.749C79.8871 153.349 79.6385 154.717 79.1413 155.854C78.6442 156.99 77.9363 157.859 77.0178 158.46C76.1039 159.057 75.0102 159.355 73.7365 159.355ZM73.7365 156.479C74.4941 156.479 75.1072 156.093 75.576 155.321C76.0447 154.545 76.2768 153.354 76.272 151.749C76.272 150.697 76.1655 149.831 75.9524 149.149C75.7393 148.463 75.4434 147.951 75.0646 147.615C74.6858 147.279 74.2431 147.111 73.7365 147.111C72.9837 147.111 72.3752 147.492 71.9112 148.254C71.4472 149.012 71.2128 150.177 71.2081 151.749C71.2034 152.814 71.3052 153.697 71.5135 154.398C71.7266 155.098 72.0249 155.622 72.4084 155.967C72.7919 156.308 73.2346 156.479 73.7365 156.479ZM92.9233 144.455V159H89.4148V147.736H89.3295L86.0767 149.724V146.685L89.6634 144.455H92.9233ZM106.451 159.355C105.182 159.355 104.089 159.054 103.17 158.453C102.252 157.847 101.544 156.978 101.047 155.847C100.549 154.71 100.303 153.344 100.308 151.749C100.313 150.153 100.561 148.799 101.054 147.686C101.551 146.569 102.256 145.719 103.17 145.136C104.089 144.549 105.182 144.256 106.451 144.256C107.72 144.256 108.814 144.549 109.733 145.136C110.656 145.719 111.366 146.569 111.863 147.686C112.36 148.804 112.607 150.158 112.602 151.749C112.602 153.349 112.353 154.717 111.856 155.854C111.359 156.99 110.651 157.859 109.733 158.46C108.819 159.057 107.725 159.355 106.451 159.355ZM106.451 156.479C107.209 156.479 107.822 156.093 108.291 155.321C108.76 154.545 108.992 153.354 108.987 151.749C108.987 150.697 108.88 149.831 108.667 149.149C108.454 148.463 108.158 147.951 107.779 147.615C107.401 147.279 106.958 147.111 106.451 147.111C105.699 147.111 105.09 147.492 104.626 148.254C104.162 149.012 103.928 150.177 103.923 151.749C103.918 152.814 104.02 153.697 104.228 154.398C104.441 155.098 104.74 155.622 105.123 155.967C105.507 156.308 105.949 156.479 106.451 156.479ZM125.638 144.455V159H122.13V147.736H122.044L118.792 149.724V146.685L122.378 144.455H125.638Z" fill="white"/>
</svg>
