<svg width="430" height="239" viewBox="0 0 430 239" fill="none" xmlns="http://www.w3.org/2000/svg">
<g filter="url(#filter0_d_1_65)">
<rect x="136.38" y="200.002" width="35.5333" height="20.6431" rx="5.2927" fill="#E5F1E3"/>
<path d="M150.2 205.429V215.694H148.325L143.86 209.233H143.784V215.694H141.614V205.429H143.519L147.949 211.885H148.04V205.429H150.2ZM156.89 212.416V207.995H159.025V215.694H156.975V214.295H156.895C156.721 214.746 156.432 215.109 156.028 215.383C155.627 215.657 155.137 215.794 154.559 215.794C154.044 215.794 153.592 215.677 153.201 215.443C152.81 215.209 152.504 214.877 152.284 214.446C152.066 214.015 151.956 213.498 151.953 212.897V207.995H154.088V212.516C154.091 212.97 154.213 213.33 154.454 213.594C154.694 213.858 155.017 213.99 155.421 213.99C155.678 213.99 155.919 213.931 156.143 213.814C156.367 213.694 156.547 213.517 156.684 213.283C156.824 213.049 156.893 212.76 156.89 212.416ZM162.868 205.429V215.694H160.733V205.429H162.868ZM166.713 205.429V215.694H164.578V205.429H166.713Z" fill="#35635B"/>
<line x1="162.976" y1="41.6469" x2="102.739" y2="88.0094" stroke="#E5F1E3" stroke-width="1.76423"/>
<line x1="68.0732" y1="132.559" x2="18.2638" y2="189.979" stroke="#E5F1E3" stroke-width="1.76423"/>
<line x1="235.361" y1="38.1929" x2="297.791" y2="81.5584" stroke="#E5F1E3" stroke-width="1.76423"/>
<line x1="337.774" y1="118.267" x2="405.118" y2="211.669" stroke="#E5F1E3" stroke-width="1.76423"/>
<line x1="119.794" y1="135.987" x2="152.269" y2="204.714" stroke="#E5F1E3" stroke-width="1.76423"/>
<line x1="281.465" y1="134.409" x2="247.151" y2="202.237" stroke="#E5F1E3" stroke-width="1.76423"/>
<path d="M196.449 0.881836C206.728 0.881986 215.025 9.01659 215.025 19.0068C215.024 28.9969 206.728 37.1307 196.449 37.1309C186.169 37.1309 177.872 28.997 177.871 19.0068C177.871 9.0165 186.169 0.881836 196.449 0.881836Z" fill="#35635B" stroke="#E5F1E3" stroke-width="1.76423"/>
<path d="M191.622 24.6311C190.914 24.6311 190.282 24.5008 189.728 24.2402C189.176 23.9795 188.739 23.6204 188.415 23.1626C188.091 22.7048 187.922 22.1802 187.908 21.5888H190.013C190.037 21.9864 190.204 22.3089 190.515 22.5561C190.825 22.8034 191.195 22.927 191.622 22.927C191.963 22.927 192.264 22.8518 192.525 22.7015C192.788 22.5478 192.994 22.3356 193.141 22.065C193.291 21.791 193.367 21.4769 193.367 21.1227C193.367 20.7618 193.29 20.4444 193.136 20.1704C192.986 19.8964 192.777 19.6826 192.509 19.5289C192.242 19.3752 191.936 19.2966 191.592 19.2933C191.292 19.2933 190.999 19.3551 190.715 19.4787C190.434 19.6024 190.216 19.7711 190.059 19.985L188.129 19.6391L188.615 14.2261H194.89V16.0004H190.404L190.139 18.5716H190.199C190.379 18.3176 190.652 18.1071 191.016 17.9401C191.38 17.773 191.788 17.6895 192.239 17.6895C192.857 17.6895 193.408 17.8348 193.893 18.1255C194.377 18.4162 194.76 18.8155 195.041 19.3234C195.321 19.8279 195.46 20.4093 195.457 21.0676C195.46 21.7592 195.299 22.374 194.975 22.912C194.655 23.4466 194.205 23.8676 193.627 24.175C193.052 24.4791 192.384 24.6311 191.622 24.6311ZM200.995 24.7163C200.133 24.713 199.391 24.5008 198.769 24.0798C198.151 23.6588 197.675 23.049 197.341 22.2504C197.01 21.4518 196.847 20.4912 196.85 19.3685C196.85 18.2491 197.015 17.2952 197.346 16.5066C197.68 15.7181 198.156 15.1183 198.775 14.7073C199.396 14.293 200.136 14.0858 200.995 14.0858C201.854 14.0858 202.592 14.293 203.21 14.7073C203.832 15.1216 204.309 15.7231 204.644 16.5116C204.978 17.2968 205.143 18.2491 205.14 19.3685C205.14 20.4945 204.973 21.4568 204.639 22.2554C204.308 23.054 203.833 23.6638 203.215 24.0848C202.597 24.5058 201.857 24.7163 200.995 24.7163ZM200.995 22.917C201.583 22.917 202.052 22.6213 202.403 22.0299C202.754 21.4385 202.928 20.5513 202.924 19.3685C202.924 18.5899 202.844 17.9417 202.684 17.4238C202.527 16.9059 202.303 16.5166 202.012 16.256C201.725 15.9954 201.386 15.8651 200.995 15.8651C200.41 15.8651 199.942 16.1574 199.591 16.7422C199.241 17.3269 199.064 18.2024 199.06 19.3685C199.06 20.157 199.139 20.8153 199.296 21.3432C199.456 21.8678 199.682 22.2621 199.972 22.5261C200.263 22.7867 200.604 22.917 200.995 22.917Z" fill="#E5F1E3"/>
<rect x="155.103" y="36.7033" width="26.3384" height="15.5092" rx="1.05854" transform="rotate(-34.0359 155.103 36.7033)" fill="#35635B" stroke="#E5F1E3" stroke-width="1.41139"/>
<path d="M165.619 36.2238L174.126 30.4785L175.34 32.277L168.317 37.0207L170.78 40.6674L169.297 41.6689L165.619 36.2238Z" fill="white"/>
<rect x="232.658" y="46.8105" width="26.3384" height="15.5092" rx="1.05854" transform="rotate(-151.419 232.658 46.8105)" fill="#35635B" stroke="#E5F1E3" stroke-width="1.41139"/>
<path d="M227.227 39.1353L218.213 34.2247L220.151 30.6685C220.521 29.9878 220.96 29.4731 221.465 29.1246C221.97 28.7715 222.512 28.5895 223.093 28.5785C223.672 28.563 224.259 28.7175 224.855 29.042C225.454 29.3681 225.898 29.7777 226.189 30.2709C226.477 30.7625 226.601 31.3157 226.563 31.9303C226.527 32.5421 226.32 33.1942 225.943 33.8867L224.646 36.2678L223.114 35.4334L224.243 33.3604C224.441 32.9965 224.556 32.6671 224.588 32.3722C224.619 32.0772 224.567 31.8167 224.431 31.5907C224.297 31.3617 224.082 31.1664 223.786 31.005C223.486 30.8419 223.201 30.7646 222.93 30.773C222.661 30.7785 222.407 30.8742 222.169 31.0602C221.929 31.2417 221.709 31.5158 221.51 31.8826L220.81 33.1678L228.265 37.2295L227.227 39.1353ZM225.777 32.0328L231.099 32.0272L229.953 34.131L224.657 34.0882L225.777 32.0328Z" fill="white"/>
<path d="M301.356 81.7623C311.635 81.7625 319.933 89.8971 319.933 99.8873C319.932 109.877 311.635 118.011 301.356 118.011C291.077 118.011 282.779 109.878 282.779 99.8873C282.779 89.897 291.077 81.7623 301.356 81.7623Z" fill="#35635B" stroke="#E5F1E3" stroke-width="1.76423"/>
<path d="M296.385 94.9663C296.913 94.9663 297.421 95.0549 297.908 95.232C298.4 95.409 298.837 95.6914 299.222 96.079C299.609 96.4666 299.915 96.9812 300.139 97.6227C300.366 98.2609 300.481 99.0444 300.485 99.9733C300.485 100.845 300.386 101.624 300.189 102.309C299.995 102.991 299.716 103.57 299.352 104.048C298.988 104.526 298.548 104.89 298.034 105.141C297.519 105.388 296.944 105.512 296.31 105.512C295.625 105.512 295.02 105.38 294.495 105.116C293.971 104.848 293.548 104.486 293.227 104.028C292.91 103.567 292.718 103.049 292.651 102.474H294.791C294.874 102.849 295.05 103.139 295.317 103.346C295.585 103.55 295.915 103.652 296.31 103.652C296.978 103.652 297.486 103.361 297.833 102.78C298.181 102.195 298.356 101.395 298.36 100.379H298.289C298.136 100.68 297.928 100.939 297.668 101.156C297.407 101.37 297.108 101.535 296.771 101.652C296.437 101.769 296.081 101.828 295.703 101.828C295.098 101.828 294.559 101.686 294.084 101.402C293.61 101.118 293.236 100.727 292.962 100.229C292.688 99.7311 292.551 99.1631 292.551 98.5249C292.547 97.8365 292.706 97.2234 293.027 96.6854C293.347 96.1475 293.795 95.7265 294.37 95.4224C294.948 95.115 295.62 94.963 296.385 94.9663ZM296.4 96.6704C296.062 96.6704 295.762 96.7506 295.498 96.911C295.237 97.0714 295.03 97.2869 294.876 97.5575C294.726 97.8282 294.652 98.1306 294.656 98.4647C294.656 98.8022 294.729 99.1063 294.876 99.3769C295.027 99.6442 295.23 99.8581 295.488 100.018C295.748 100.175 296.046 100.254 296.38 100.254C296.63 100.254 296.863 100.207 297.076 100.114C297.29 100.02 297.476 99.8915 297.633 99.7277C297.793 99.5607 297.918 99.3686 298.009 99.1514C298.099 98.9342 298.144 98.7036 298.144 98.4597C298.141 98.1356 298.064 97.8382 297.913 97.5676C297.763 97.2969 297.556 97.0797 297.292 96.916C297.028 96.7523 296.731 96.6704 296.4 96.6704ZM306.013 105.597C305.151 105.593 304.409 105.381 303.788 104.96C303.169 104.539 302.693 103.929 302.359 103.131C302.028 102.332 301.865 101.372 301.868 100.249C301.868 99.1296 302.033 98.1757 302.364 97.3871C302.698 96.5986 303.174 95.9988 303.793 95.5878C304.414 95.1735 305.154 94.9663 306.013 94.9663C306.872 94.9663 307.61 95.1735 308.228 95.5878C308.85 96.0021 309.327 96.6036 309.662 97.3921C309.996 98.1774 310.161 99.1296 310.158 100.249C310.158 101.375 309.991 102.337 309.657 103.136C309.326 103.935 308.851 104.544 308.233 104.965C307.615 105.386 306.875 105.597 306.013 105.597ZM306.013 103.798C306.601 103.798 307.07 103.502 307.421 102.91C307.772 102.319 307.946 101.432 307.943 100.249C307.943 99.4705 307.862 98.8222 307.702 98.3043C307.545 97.7864 307.321 97.3972 307.03 97.1365C306.743 96.8759 306.404 96.7456 306.013 96.7456C305.428 96.7456 304.96 97.038 304.61 97.6227C304.259 98.2074 304.082 99.0829 304.078 100.249C304.078 101.038 304.157 101.696 304.314 102.224C304.474 102.748 304.7 103.143 304.99 103.407C305.281 103.667 305.622 103.798 306.013 103.798Z" fill="#E5F1E3"/>
<rect x="273.071" y="132.453" width="26.3384" height="15.5092" rx="1.05854" transform="rotate(-61.7674 273.071 132.453)" fill="#35635B" stroke="#E5F1E3" stroke-width="1.41139"/>
<path d="M282.157 127.135L287.012 118.091L288.924 119.118L284.915 126.585L288.792 128.666L287.946 130.243L282.157 127.135Z" fill="white"/>
<rect x="337.566" y="127.691" width="26.3384" height="15.5092" rx="1.05854" transform="rotate(-151.419 337.566 127.691)" fill="#35635B" stroke="#E5F1E3" stroke-width="1.41139"/>
<path d="M332.135 120.016L323.121 115.105L325.058 111.549C325.429 110.868 325.867 110.354 326.373 110.005C326.878 109.652 327.42 109.47 328.001 109.459C328.58 109.444 329.167 109.598 329.763 109.923C330.361 110.249 330.806 110.658 331.097 111.151C331.384 111.643 331.509 112.196 331.471 112.811C331.435 113.423 331.228 114.075 330.851 114.767L329.553 117.148L328.022 116.314L329.151 114.241C329.349 113.877 329.464 113.548 329.495 113.253C329.527 112.958 329.474 112.697 329.339 112.471C329.205 112.242 328.99 112.047 328.693 111.885C328.394 111.722 328.109 111.645 327.838 111.654C327.569 111.659 327.315 111.755 327.077 111.941C326.837 112.122 326.617 112.396 326.417 112.763L325.717 114.048L333.173 118.11L332.135 120.016ZM330.685 112.913L336.007 112.908L334.861 115.012L329.565 114.969L330.685 112.913Z" fill="white"/>
<path d="M96.6169 85.4849C106.896 85.485 115.193 93.6196 115.193 103.61C115.193 113.6 106.896 121.734 96.6169 121.734C86.3378 121.734 78.04 113.6 78.0398 103.61C78.0398 93.6195 86.3377 85.4849 96.6169 85.4849Z" fill="#35635B" stroke="#E5F1E3" stroke-width="1.76423"/>
<path d="M91.7325 109.234C90.984 109.234 90.3174 109.106 89.7327 108.848C89.1513 108.588 88.6918 108.23 88.3544 107.776C88.0202 107.318 87.8481 106.79 87.8381 106.192H90.0234C90.0367 106.442 90.1186 106.663 90.269 106.853C90.4227 107.041 90.6265 107.186 90.8804 107.289C91.1344 107.393 91.4201 107.445 91.7375 107.445C92.0683 107.445 92.3606 107.386 92.6146 107.269C92.8685 107.152 93.0673 106.99 93.211 106.783C93.3547 106.576 93.4265 106.337 93.4265 106.067C93.4265 105.793 93.3497 105.55 93.196 105.34C93.0456 105.126 92.8284 104.959 92.5444 104.839C92.2637 104.718 91.9296 104.658 91.542 104.658H90.5847V103.064H91.542C91.8695 103.064 92.1585 103.008 92.4091 102.894C92.663 102.78 92.8602 102.623 93.0005 102.423C93.1409 102.219 93.211 101.982 93.211 101.711C93.211 101.454 93.1492 101.228 93.0256 101.034C92.9053 100.837 92.7349 100.684 92.5143 100.573C92.2972 100.463 92.0432 100.408 91.7525 100.408C91.4585 100.408 91.1895 100.461 90.9456 100.568C90.7017 100.672 90.5062 100.821 90.3592 101.014C90.2122 101.208 90.1336 101.435 90.1236 101.696H88.0436C88.0536 101.105 88.2224 100.583 88.5498 100.132C88.8773 99.6812 89.3183 99.3287 89.873 99.0748C90.431 98.8175 91.0609 98.6889 91.7625 98.6889C92.4709 98.6889 93.0907 98.8175 93.622 99.0748C94.1533 99.3321 94.5659 99.6796 94.86 100.117C95.1574 100.552 95.3044 101.039 95.301 101.581C95.3044 102.156 95.1256 102.635 94.7647 103.019C94.4072 103.404 93.9411 103.647 93.3664 103.751V103.831C94.1215 103.928 94.6963 104.19 95.0905 104.618C95.4882 105.042 95.6853 105.574 95.682 106.212C95.6853 106.797 95.5166 107.316 95.1757 107.771C94.8383 108.225 94.3721 108.583 93.7774 108.843C93.1826 109.104 92.501 109.234 91.7325 109.234ZM101.267 109.319C100.405 109.316 99.6628 109.104 99.0413 108.683C98.4231 108.262 97.947 107.652 97.6128 106.853C97.282 106.055 97.1183 105.094 97.1217 103.972C97.1217 102.852 97.2871 101.898 97.6178 101.11C97.952 100.321 98.4281 99.7213 99.0463 99.3103C99.6678 98.896 100.408 98.6889 101.267 98.6889C102.125 98.6889 102.864 98.896 103.482 99.3103C104.103 99.7247 104.581 100.326 104.915 101.115C105.249 101.9 105.415 102.852 105.412 103.972C105.412 105.098 105.244 106.06 104.91 106.858C104.58 107.657 104.105 108.267 103.487 108.688C102.869 109.109 102.129 109.319 101.267 109.319ZM101.267 107.52C101.855 107.52 102.324 107.224 102.675 106.633C103.026 106.041 103.2 105.154 103.196 103.972C103.196 103.193 103.116 102.545 102.956 102.027C102.799 101.509 102.575 101.12 102.284 100.859C101.997 100.598 101.658 100.468 101.267 100.468C100.682 100.468 100.214 100.76 99.8632 101.345C99.5124 101.93 99.3353 102.805 99.332 103.972C99.332 104.76 99.4105 105.418 99.5675 105.946C99.7279 106.471 99.9535 106.865 100.244 107.129C100.535 107.39 100.876 107.52 101.267 107.52Z" fill="#E5F1E3"/>
<rect x="59.8587" y="129.017" width="26.3384" height="15.5092" rx="1.05854" transform="rotate(-48.5098 59.8587 129.017)" fill="#35635B" stroke="#E5F1E3" stroke-width="1.41139"/>
<path d="M69.9214 125.925L76.7217 118.236L78.3473 119.673L72.7325 126.022L76.0288 128.937L74.8434 130.278L69.9214 125.925Z" fill="white"/>
<rect x="113.901" y="141.568" width="26.3384" height="15.5092" rx="1.05854" transform="rotate(-117.448 113.901 141.568)" fill="#35635B" stroke="#E5F1E3" stroke-width="1.41139"/>
<path d="M113.686 132.168L108.954 123.059L112.548 121.192C113.236 120.835 113.887 120.653 114.501 120.646C115.117 120.635 115.668 120.787 116.156 121.103C116.645 121.414 117.046 121.87 117.358 122.472C117.673 123.077 117.812 123.665 117.778 124.236C117.742 124.805 117.536 125.333 117.161 125.822C116.789 126.309 116.253 126.734 115.553 127.097L113.147 128.347L112.343 126.799L114.438 125.711C114.806 125.52 115.085 125.311 115.276 125.084C115.467 124.857 115.569 124.612 115.583 124.349C115.6 124.084 115.53 123.802 115.375 123.502C115.218 123.2 115.024 122.976 114.795 122.832C114.569 122.686 114.305 122.624 114.003 122.645C113.703 122.661 113.367 122.766 112.997 122.958L111.698 123.633L115.612 131.167L113.686 132.168ZM116.452 125.467L120.869 128.437L118.743 129.541L114.375 126.546L116.452 125.467Z" fill="white"/>
<rect y="189.511" width="35.5333" height="20.6431" rx="5.2927" fill="#E5F1E3"/>
<path d="M13.8197 194.938V205.203H11.9452L7.47946 198.742H7.40428V205.203H5.23407V194.938H7.13864L11.5693 201.394H11.6595V194.938H13.8197ZM20.5095 201.925V197.504H22.6446V205.203H20.5947V203.805H20.5145C20.3407 204.256 20.0517 204.618 19.6474 204.892C19.2465 205.166 18.7569 205.303 18.1789 205.303C17.6643 205.303 17.2116 205.186 16.8206 204.952C16.4297 204.718 16.124 204.386 15.9034 203.955C15.6862 203.524 15.576 203.008 15.5726 202.406V197.504H17.7078V202.025C17.7111 202.48 17.8331 202.839 18.0736 203.103C18.3142 203.367 18.6367 203.499 19.041 203.499C19.2982 203.499 19.5388 203.44 19.7627 203.323C19.9866 203.203 20.167 203.026 20.304 202.792C20.4443 202.558 20.5128 202.269 20.5095 201.925ZM26.4876 194.938V205.203H24.3525V194.938H26.4876ZM30.3331 194.938V205.203H28.1979V194.938H30.3331Z" fill="#35635B"/>
<rect x="230.459" y="201.694" width="35.5333" height="20.6431" rx="5.2927" fill="#E5F1E3"/>
<path d="M244.278 207.121V217.386H242.404L237.938 210.925H237.863V217.386H235.693V207.121H237.597L242.028 213.577H242.118V207.121H244.278ZM250.968 214.108V209.687H253.103V217.386H251.053V215.987H250.973C250.799 216.438 250.51 216.801 250.106 217.075C249.705 217.349 249.216 217.486 248.638 217.486C248.123 217.486 247.67 217.369 247.279 217.135C246.888 216.901 246.583 216.569 246.362 216.138C246.145 215.707 246.035 215.19 246.031 214.589V209.687H248.166V214.208C248.17 214.663 248.292 215.022 248.532 215.286C248.773 215.55 249.095 215.682 249.5 215.682C249.757 215.682 249.998 215.623 250.221 215.506C250.445 215.386 250.626 215.209 250.763 214.975C250.903 214.741 250.972 214.452 250.968 214.108ZM256.946 207.121V217.386H254.811V207.121H256.946ZM260.792 207.121V217.386H258.657V207.121H260.792Z" fill="#35635B"/>
<rect x="386.467" y="210.154" width="35.5333" height="20.6431" rx="5.2927" fill="#E5F1E3"/>
<path d="M400.286 215.581V225.846H398.412L393.946 219.386H393.871V225.846H391.701V215.581H393.605L398.036 222.037H398.126V215.581H400.286ZM406.976 222.568V218.148H409.111V225.846H407.061V224.448H406.981C406.807 224.899 406.518 225.261 406.114 225.535C405.713 225.809 405.224 225.946 404.646 225.946C404.131 225.946 403.678 225.829 403.287 225.595C402.896 225.362 402.591 225.029 402.37 224.598C402.153 224.167 402.043 223.651 402.039 223.049V218.148H404.174V222.668C404.178 223.123 404.3 223.482 404.54 223.746C404.781 224.01 405.103 224.142 405.508 224.142C405.765 224.142 406.006 224.083 406.229 223.967C406.453 223.846 406.634 223.669 406.771 223.435C406.911 223.201 406.98 222.912 406.976 222.568ZM412.954 215.581V225.846H410.819V215.581H412.954ZM416.8 215.581V225.846H414.665V215.581H416.8Z" fill="#35635B"/>
</g>
<defs>
<filter id="filter0_d_1_65" x="0" y="0" width="430" height="238.797" filterUnits="userSpaceOnUse" color-interpolation-filters="sRGB">
<feFlood flood-opacity="0" result="BackgroundImageFix"/>
<feColorMatrix in="SourceAlpha" type="matrix" values="0 0 0 0 0 0 0 0 0 0 0 0 0 0 0 0 0 0 127 0" result="hardAlpha"/>
<feOffset dx="4" dy="4"/>
<feGaussianBlur stdDeviation="2"/>
<feComposite in2="hardAlpha" operator="out"/>
<feColorMatrix type="matrix" values="0 0 0 0 0 0 0 0 0 0 0 0 0 0 0 0 0 0 0.25 0"/>
<feBlend mode="normal" in2="BackgroundImageFix" result="effect1_dropShadow_1_65"/>
<feBlend mode="normal" in="SourceGraphic" in2="effect1_dropShadow_1_65" result="shape"/>
</filter>
</defs>
</svg>
