<svg width="358" height="261" viewBox="0 0 358 261" fill="none" xmlns="http://www.w3.org/2000/svg">
<g filter="url(#filter0_d_3_16)">
<rect x="218.5" y="67.5" width="122" height="179" rx="9.5" fill="#5F818A" stroke="#B9DBE6" stroke-width="5"/>
<path d="M233 198C233 195.239 235.239 193 238 193H322C324.761 193 327 195.239 327 198V224C327 226.761 324.761 229 322 229H238C235.239 229 233 226.761 233 224V198Z" fill="#B9DBE6"/>
<path d="M241.406 216V202.909H246.813C247.794 202.909 248.639 203.101 249.351 203.484C250.067 203.864 250.619 204.394 251.007 205.076C251.394 205.754 251.588 206.542 251.588 207.441C251.588 208.344 251.39 209.135 250.994 209.812C250.602 210.486 250.041 211.008 249.313 211.379C248.584 211.749 247.719 211.935 246.718 211.935H243.381V209.442H246.13C246.607 209.442 247.005 209.359 247.325 209.192C247.649 209.026 247.894 208.794 248.06 208.496C248.226 208.193 248.309 207.842 248.309 207.441C248.309 207.036 248.226 206.687 248.06 206.393C247.894 206.094 247.649 205.864 247.325 205.702C247.001 205.54 246.603 205.46 246.13 205.46H244.57V216H241.406ZM253.148 216V206.182H256.184V207.972H256.286C256.465 207.324 256.757 206.842 257.162 206.527C257.567 206.207 258.038 206.048 258.575 206.048C258.72 206.048 258.869 206.058 259.022 206.08C259.176 206.097 259.318 206.124 259.451 206.163V208.879C259.301 208.828 259.105 208.788 258.862 208.758C258.624 208.728 258.411 208.713 258.223 208.713C257.853 208.713 257.518 208.796 257.22 208.962C256.926 209.124 256.693 209.352 256.523 209.646C256.357 209.936 256.274 210.277 256.274 210.669V216H253.148ZM264.804 216.185C263.777 216.185 262.891 215.983 262.145 215.578C261.403 215.169 260.832 214.587 260.432 213.833C260.035 213.075 259.837 212.173 259.837 211.129C259.837 210.115 260.038 209.229 260.438 208.47C260.839 207.707 261.403 207.115 262.132 206.693C262.861 206.267 263.719 206.054 264.708 206.054C265.407 206.054 266.046 206.163 266.626 206.38C267.205 206.597 267.706 206.919 268.128 207.345C268.55 207.771 268.878 208.298 269.112 208.924C269.347 209.546 269.464 210.26 269.464 211.065V211.845H260.93V210.03H266.555C266.551 209.697 266.472 209.401 266.319 209.141C266.165 208.881 265.954 208.679 265.686 208.534C265.422 208.385 265.117 208.31 264.772 208.31C264.422 208.31 264.109 208.389 263.832 208.547C263.555 208.7 263.336 208.911 263.174 209.18C263.012 209.444 262.927 209.744 262.918 210.081V211.928C262.918 212.329 262.997 212.68 263.155 212.983C263.312 213.281 263.536 213.513 263.826 213.68C264.116 213.846 264.461 213.929 264.861 213.929C265.138 213.929 265.39 213.891 265.616 213.814C265.842 213.737 266.035 213.624 266.197 213.475C266.359 213.326 266.481 213.143 266.562 212.925L269.432 213.009C269.312 213.652 269.05 214.212 268.646 214.69C268.245 215.163 267.719 215.531 267.067 215.795C266.415 216.055 265.66 216.185 264.804 216.185ZM280.321 206.182L276.952 216H273.372L270.01 206.182H273.302L275.111 212.945H275.213L277.029 206.182H280.321ZM281.519 216V206.182H284.645V216H281.519ZM283.085 205.038C282.646 205.038 282.269 204.893 281.954 204.603C281.638 204.309 281.481 203.955 281.481 203.542C281.481 203.133 281.638 202.783 281.954 202.494C282.269 202.2 282.646 202.053 283.085 202.053C283.528 202.053 283.905 202.2 284.217 202.494C284.532 202.783 284.69 203.133 284.69 203.542C284.69 203.955 284.532 204.309 284.217 204.603C283.905 204.893 283.528 205.038 283.085 205.038ZM291.217 216.185C290.186 216.185 289.3 215.974 288.558 215.553C287.821 215.126 287.252 214.534 286.852 213.776C286.455 213.013 286.257 212.129 286.257 211.123C286.257 210.113 286.455 209.229 286.852 208.47C287.252 207.707 287.821 207.115 288.558 206.693C289.3 206.267 290.186 206.054 291.217 206.054C292.249 206.054 293.133 206.267 293.87 206.693C294.612 207.115 295.18 207.707 295.577 208.47C295.977 209.229 296.178 210.113 296.178 211.123C296.178 212.129 295.977 213.013 295.577 213.776C295.18 214.534 294.612 215.126 293.87 215.553C293.133 215.974 292.249 216.185 291.217 216.185ZM291.237 213.827C291.612 213.827 291.929 213.712 292.189 213.482C292.449 213.251 292.647 212.932 292.783 212.523C292.924 212.114 292.994 211.641 292.994 211.104C292.994 210.558 292.924 210.081 292.783 209.672C292.647 209.263 292.449 208.943 292.189 208.713C291.929 208.483 291.612 208.368 291.237 208.368C290.849 208.368 290.521 208.483 290.252 208.713C289.988 208.943 289.786 209.263 289.645 209.672C289.509 210.081 289.44 210.558 289.44 211.104C289.44 211.641 289.509 212.114 289.645 212.523C289.786 212.932 289.988 213.251 290.252 213.482C290.521 213.712 290.849 213.827 291.237 213.827ZM304.113 211.762V206.182H307.233V216H304.254V214.172H304.152C303.934 214.773 303.564 215.25 303.04 215.604C302.52 215.953 301.891 216.128 301.154 216.128C300.485 216.128 299.897 215.974 299.39 215.668C298.883 215.361 298.488 214.933 298.207 214.383C297.926 213.829 297.783 213.181 297.779 212.44V206.182H300.905V211.826C300.909 212.359 301.049 212.778 301.326 213.085C301.603 213.392 301.981 213.545 302.458 213.545C302.769 213.545 303.048 213.477 303.295 213.341C303.547 213.2 303.745 212.998 303.89 212.734C304.039 212.465 304.113 212.141 304.113 211.762ZM317.794 209.18L314.924 209.256C314.894 209.052 314.813 208.871 314.681 208.713C314.549 208.551 314.376 208.425 314.163 208.336C313.954 208.242 313.712 208.195 313.435 208.195C313.072 208.195 312.763 208.268 312.508 208.413C312.256 208.558 312.133 208.754 312.137 209.001C312.133 209.192 312.209 209.359 312.367 209.499C312.529 209.64 312.817 209.753 313.23 209.838L315.122 210.196C316.102 210.384 316.831 210.695 317.308 211.129C317.79 211.564 318.033 212.139 318.037 212.855C318.033 213.528 317.832 214.114 317.436 214.613C317.044 215.112 316.507 215.499 315.825 215.776C315.143 216.049 314.364 216.185 313.486 216.185C312.084 216.185 310.978 215.898 310.168 215.322C309.363 214.743 308.903 213.967 308.788 212.996L311.875 212.919C311.943 213.277 312.12 213.55 312.405 213.737C312.691 213.925 313.055 214.018 313.498 214.018C313.899 214.018 314.225 213.944 314.476 213.795C314.728 213.646 314.856 213.447 314.86 213.2C314.856 212.979 314.758 212.802 314.566 212.67C314.374 212.533 314.074 212.427 313.665 212.35L311.952 212.024C310.967 211.845 310.234 211.515 309.753 211.033C309.271 210.548 309.033 209.93 309.037 209.18C309.033 208.523 309.207 207.963 309.561 207.499C309.915 207.03 310.418 206.672 311.07 206.425C311.722 206.178 312.491 206.054 313.377 206.054C314.707 206.054 315.755 206.333 316.522 206.891C317.289 207.445 317.713 208.208 317.794 209.18Z" fill="#304852"/>
<path d="M233 108C233 105.239 235.239 103 238 103H322C324.761 103 327 105.239 327 108V134C327 136.761 324.761 139 322 139H238C235.239 139 233 136.761 233 134V108Z" fill="#B9DBE6"/>
<path d="M269.311 127V124.724L274.086 120.544C274.444 120.22 274.748 119.924 275 119.656C275.251 119.383 275.443 119.11 275.575 118.837C275.707 118.56 275.773 118.26 275.773 117.936C275.773 117.574 275.694 117.265 275.537 117.009C275.379 116.749 275.162 116.549 274.885 116.408C274.608 116.268 274.29 116.197 273.932 116.197C273.57 116.197 273.253 116.272 272.98 116.421C272.707 116.566 272.494 116.777 272.341 117.054C272.192 117.331 272.117 117.668 272.117 118.064H269.119C269.119 117.173 269.319 116.404 269.72 115.756C270.121 115.109 270.683 114.61 271.407 114.261C272.136 113.907 272.982 113.73 273.945 113.73C274.938 113.73 275.801 113.896 276.534 114.229C277.267 114.561 277.834 115.026 278.234 115.622C278.639 116.214 278.841 116.903 278.841 117.687C278.841 118.185 278.741 118.68 278.541 119.17C278.341 119.66 277.981 120.201 277.461 120.793C276.945 121.386 276.212 122.095 275.262 122.922L273.696 124.366V124.45H279.001V127H269.311ZM285.801 127.179C284.846 127.179 283.998 127.006 283.257 126.661C282.515 126.316 281.929 125.841 281.499 125.236C281.073 124.631 280.851 123.936 280.834 123.152H283.902C283.928 123.634 284.124 124.021 284.49 124.315C284.857 124.605 285.294 124.75 285.801 124.75C286.197 124.75 286.549 124.663 286.855 124.488C287.162 124.313 287.403 124.068 287.578 123.753C287.752 123.433 287.838 123.067 287.833 122.653C287.838 122.232 287.75 121.863 287.571 121.548C287.397 121.232 287.154 120.987 286.843 120.812C286.536 120.634 286.182 120.544 285.782 120.544C285.402 120.54 285.042 120.623 284.701 120.793C284.365 120.964 284.109 121.196 283.934 121.49L281.141 120.966L281.71 113.909H290.109V116.46H284.311L284.011 119.547H284.088C284.305 119.185 284.654 118.886 285.136 118.652C285.622 118.413 286.174 118.294 286.792 118.294C287.576 118.294 288.275 118.477 288.888 118.844C289.506 119.206 289.992 119.709 290.346 120.352C290.703 120.996 290.882 121.733 290.882 122.564C290.882 123.463 290.669 124.26 290.243 124.955C289.821 125.649 289.229 126.195 288.466 126.591C287.708 126.983 286.819 127.179 285.801 127.179Z" fill="#304852"/>
<path d="M233 154C233 151.239 235.239 149 238 149H322C324.761 149 327 151.239 327 154V180C327 182.761 324.761 185 322 185H238C235.239 185 233 182.761 233 180V154Z" fill="#B9DBE6"/>
<path d="M270.881 159.909V173H268.196L262.987 165.445H262.904V173H259.74V159.909H262.463L267.615 167.452H267.723V159.909H270.881ZM277.46 173.185C276.433 173.185 275.547 172.983 274.801 172.578C274.06 172.169 273.489 171.587 273.088 170.833C272.692 170.075 272.494 169.173 272.494 168.129C272.494 167.115 272.694 166.229 273.094 165.47C273.495 164.707 274.06 164.115 274.788 163.693C275.517 163.267 276.376 163.054 277.364 163.054C278.063 163.054 278.702 163.163 279.282 163.38C279.861 163.597 280.362 163.919 280.784 164.345C281.206 164.771 281.534 165.298 281.768 165.924C282.003 166.546 282.12 167.26 282.12 168.065V168.845H273.587V167.03H279.212C279.207 166.697 279.128 166.401 278.975 166.141C278.822 165.881 278.611 165.679 278.342 165.534C278.078 165.385 277.773 165.31 277.428 165.31C277.079 165.31 276.766 165.389 276.489 165.547C276.212 165.7 275.992 165.911 275.83 166.18C275.668 166.444 275.583 166.744 275.574 167.081V168.928C275.574 169.329 275.653 169.68 275.811 169.983C275.969 170.281 276.192 170.513 276.482 170.68C276.772 170.846 277.117 170.929 277.518 170.929C277.795 170.929 278.046 170.891 278.272 170.814C278.498 170.737 278.692 170.624 278.854 170.475C279.016 170.326 279.137 170.143 279.218 169.925L282.088 170.009C281.969 170.652 281.707 171.212 281.302 171.69C280.901 172.163 280.375 172.531 279.723 172.795C279.071 173.055 278.317 173.185 277.46 173.185ZM286.235 163.182L287.852 166.416L289.527 163.182H292.678L289.936 168.091L292.78 173H289.655L287.852 169.74L286.094 173H282.924L285.775 168.091L283.064 163.182H286.235ZM299.647 163.182V165.483H293.453V163.182H299.647ZM294.751 160.83H297.876V169.913C297.876 170.104 297.906 170.26 297.966 170.379C298.03 170.494 298.121 170.577 298.241 170.629C298.36 170.675 298.503 170.699 298.669 170.699C298.788 170.699 298.914 170.688 299.046 170.667C299.182 170.641 299.285 170.62 299.353 170.603L299.826 172.859C299.677 172.902 299.466 172.955 299.193 173.019C298.925 173.083 298.603 173.124 298.228 173.141C297.495 173.175 296.866 173.089 296.342 172.885C295.822 172.676 295.424 172.352 295.147 171.913C294.874 171.474 294.742 170.923 294.751 170.258V160.83Z" fill="#304852"/>
</g>
<g filter="url(#filter1_d_3_16)">
<rect x="116.922" y="31.9442" width="122" height="179" rx="9.5" transform="rotate(34.3759 116.922 31.9442)" fill="#5F818A" stroke="#B9DBE6" stroke-width="5"/>
<path d="M55.2069 147.84C56.766 145.56 59.8776 144.977 62.1567 146.536L131.486 193.964C133.765 195.523 134.349 198.635 132.79 200.914L118.11 222.373C116.551 224.652 113.439 225.236 111.16 223.677L41.8304 176.248C39.5512 174.689 38.9676 171.578 40.5267 169.299L55.2069 147.84Z" fill="#B9DBE6"/>
<path d="M51.9814 167.442L59.3728 156.637L63.836 159.691C64.645 160.244 65.2349 160.88 65.6057 161.598C65.9824 162.315 66.1383 163.065 66.0734 163.847C66.0109 164.625 65.7258 165.385 65.2181 166.127C64.7081 166.873 64.0982 167.413 63.3885 167.749C62.6848 168.083 61.9276 168.197 61.1168 168.092C60.3061 167.987 59.4874 167.651 58.6609 167.086L55.907 165.202L57.3145 163.144L59.5831 164.696C59.977 164.966 60.3528 165.122 60.7104 165.165C61.0715 165.211 61.4049 165.158 61.7105 165.005C62.0185 164.849 62.2856 164.606 62.5117 164.276C62.7403 163.941 62.869 163.606 62.8979 163.27C62.9291 162.93 62.8568 162.601 62.6809 162.285C62.5051 161.968 62.2219 161.677 61.8315 161.409L60.5443 160.529L54.5929 169.228L51.9814 167.442ZM61.6729 174.072L67.2164 165.968L69.7223 167.683L68.7118 169.16L68.7962 169.218C69.3097 168.784 69.8225 168.551 70.3346 168.52C70.8492 168.485 71.3281 168.619 71.7712 168.922C71.8908 169.003 72.0079 169.096 72.1225 169.201C72.2395 169.301 72.3417 169.405 72.429 169.511L70.8952 171.753C70.801 171.627 70.662 171.483 70.4784 171.321C70.2983 171.162 70.1308 171.029 69.9761 170.923C69.6701 170.714 69.3471 170.594 69.0071 170.562C68.6729 170.53 68.3525 170.587 68.0458 170.733C67.7451 170.879 67.484 171.113 67.2626 171.437L64.2527 175.837L61.6729 174.072ZM71.1884 180.806C70.3408 180.226 69.7235 179.559 69.3366 178.803C68.9556 178.047 68.8127 177.245 68.908 176.396C69.0092 175.546 69.3545 174.69 69.944 173.829C70.5166 172.992 71.1824 172.373 71.9413 171.973C72.7026 171.57 73.503 171.4 74.3426 171.463C75.1847 171.523 76.0137 171.832 76.8297 172.39C77.4065 172.784 77.8727 173.235 78.2283 173.742C78.5839 174.248 78.8155 174.796 78.9231 175.386C79.0307 175.976 79.0044 176.596 78.8441 177.245C78.6863 177.891 78.38 178.546 77.9252 179.211L77.4849 179.855L70.4419 175.037L71.4669 173.538L76.1095 176.714C76.2936 176.438 76.3958 176.149 76.4159 175.847C76.4361 175.546 76.3763 175.26 76.2365 174.989C76.1027 174.717 75.8933 174.483 75.6084 174.288C75.32 174.091 75.017 173.979 74.6993 173.953C74.3841 173.923 74.0839 173.973 73.7986 174.103C73.5158 174.23 73.2759 174.43 73.0787 174.703L72.0357 176.228C71.8095 176.558 71.6761 176.893 71.6354 177.232C71.5971 177.567 71.6506 177.885 71.796 178.186C71.9413 178.486 72.1793 178.75 72.5099 178.976C72.7385 179.133 72.9677 179.243 73.1974 179.307C73.4271 179.371 73.6509 179.388 73.8687 179.356C74.0866 179.324 74.2903 179.242 74.4798 179.108L76.8017 180.797C76.3399 181.261 75.8072 181.575 75.2036 181.74C74.6059 181.905 73.9634 181.912 73.2761 181.762C72.5913 181.608 71.8953 181.29 71.1884 180.806ZM89.6433 181.311L81.3195 187.512L78.3651 185.491L81.1336 175.489L83.8506 177.348L81.5252 183.951L81.6096 184.009L86.9263 179.452L89.6433 181.311ZM85.089 190.091L90.6325 181.987L93.2123 183.752L87.6688 191.856L85.089 190.091ZM92.5711 181.927C92.2088 181.679 91.9794 181.347 91.8827 180.93C91.7884 180.509 91.858 180.128 92.0914 179.787C92.3224 179.449 92.6498 179.25 93.0737 179.189C93.5 179.124 93.8943 179.216 94.2565 179.463C94.6223 179.714 94.8506 180.048 94.9413 180.466C95.0379 180.883 94.9708 181.261 94.7398 181.598C94.5064 181.94 94.1766 182.143 93.7503 182.207C93.3299 182.271 92.9369 182.177 92.5711 181.927ZM92.9888 195.72C92.1377 195.137 91.5252 194.463 91.1514 193.696C90.7836 192.928 90.6485 192.118 90.7462 191.266C90.8498 190.412 91.1855 189.571 91.7533 188.741C92.3235 187.907 92.9863 187.289 93.7417 186.887C94.503 186.483 95.307 186.316 96.1536 186.384C97.0062 186.451 97.8581 186.775 98.7092 187.358C99.5604 187.94 100.17 188.615 100.538 189.383C100.911 190.15 101.047 190.96 100.943 191.813C100.845 192.665 100.511 193.508 99.9411 194.342C99.3733 195.172 98.7088 195.789 97.9475 196.192C97.1921 196.594 96.3881 196.762 95.5355 196.695C94.6889 196.627 93.84 196.302 92.9888 195.72ZM94.3364 193.784C94.6459 193.995 94.9729 194.08 95.3174 194.037C95.6618 193.993 96.0058 193.841 96.3494 193.581C96.6964 193.323 97.0215 192.972 97.3247 192.529C97.6327 192.079 97.8441 191.645 97.959 191.228C98.0775 190.813 98.0944 190.438 98.0097 190.101C97.9251 189.764 97.7281 189.49 97.4186 189.278C97.0985 189.059 96.7627 188.969 96.4112 189.007C96.0632 189.048 95.7157 189.198 95.3687 189.456C95.0251 189.716 94.6994 190.072 94.3914 190.522C94.0882 190.965 93.8774 191.394 93.759 191.809C93.6441 192.226 93.6307 192.604 93.7188 192.943C93.8105 193.284 94.0163 193.565 94.3364 193.784ZM106.13 199.35L109.281 194.744L111.855 196.506L106.312 204.609L103.853 202.927L104.885 201.418L104.801 201.361C104.282 201.734 103.707 201.918 103.075 201.914C102.448 201.909 101.831 201.699 101.222 201.282C100.67 200.905 100.271 200.446 100.026 199.906C99.7808 199.367 99.6973 198.791 99.7755 198.178C99.8562 197.562 100.104 196.947 100.519 196.333L104.053 191.168L106.632 192.933L103.446 197.591C103.148 198.033 103.027 198.459 103.083 198.869C103.138 199.278 103.363 199.618 103.757 199.887C104.013 200.063 104.282 200.164 104.563 200.191C104.85 200.217 105.128 200.162 105.397 200.026C105.671 199.888 105.916 199.663 106.13 199.35ZM118.879 204.943L116.467 203.386C116.558 203.2 116.594 203.005 116.574 202.8C116.556 202.592 116.484 202.391 116.359 202.197C116.24 202.001 116.066 201.826 115.837 201.669C115.538 201.465 115.242 201.35 114.949 201.325C114.66 201.303 114.447 201.395 114.311 201.601C114.2 201.757 114.169 201.938 114.22 202.143C114.274 202.35 114.448 202.606 114.741 202.91L116.1 204.273C116.803 204.981 117.229 205.65 117.378 206.278C117.53 206.908 117.405 207.52 117.005 208.114C116.621 208.667 116.125 209.038 115.516 209.225C114.911 209.415 114.249 209.432 113.53 209.276C112.813 209.116 112.093 208.788 111.368 208.293C110.211 207.501 109.461 206.639 109.117 205.707C108.78 204.774 108.838 203.874 109.291 203.007L111.883 204.687C111.737 205.021 111.729 205.346 111.859 205.662C111.988 205.978 112.236 206.261 112.602 206.511C112.933 206.738 113.244 206.86 113.536 206.879C113.827 206.898 114.045 206.806 114.188 206.605C114.309 206.42 114.328 206.218 114.245 206.001C114.163 205.78 113.975 205.523 113.681 205.228L112.451 203.992C111.74 203.289 111.321 202.602 111.196 201.933C111.073 201.26 111.225 200.615 111.652 199.999C112.019 199.455 112.479 199.091 113.033 198.907C113.59 198.72 114.207 198.708 114.885 198.872C115.563 199.037 116.267 199.369 116.999 199.869C118.096 200.62 118.804 201.442 119.122 202.336C119.442 203.226 119.361 204.095 118.879 204.943Z" fill="#304852"/>
<path d="M106.023 73.5579C107.582 71.2788 110.693 70.6951 112.973 72.2543L182.302 119.682C184.581 121.242 185.165 124.353 183.606 126.632L168.926 148.091C167.366 150.37 164.255 150.954 161.976 149.395L92.6462 101.967C90.367 100.408 89.7834 97.2962 91.3425 95.0171L106.023 73.5579Z" fill="#B9DBE6"/>
<path d="M128.671 112.289C127.848 111.726 127.214 111.086 126.77 110.369C126.332 109.651 126.101 108.917 126.077 108.168C126.052 107.418 126.259 106.715 126.698 106.06L129.325 107.857C129.174 108.1 129.107 108.361 129.122 108.64C129.14 108.916 129.236 109.188 129.409 109.456C129.581 109.724 129.823 109.963 130.132 110.175C130.442 110.387 130.752 110.519 131.062 110.571C131.378 110.622 131.669 110.597 131.935 110.495C132.203 110.389 132.422 110.208 132.592 109.953C132.769 109.702 132.851 109.428 132.838 109.13C132.825 108.832 132.72 108.535 132.524 108.241C132.331 107.949 132.052 107.678 131.686 107.428L130.636 106.71L131.907 104.853L132.957 105.571C133.277 105.79 133.594 105.93 133.909 105.99C134.227 106.053 134.52 106.036 134.787 105.94C135.057 105.841 135.275 105.665 135.442 105.413C135.612 105.172 135.699 104.92 135.705 104.655C135.716 104.389 135.652 104.133 135.51 103.887C135.373 103.643 135.167 103.427 134.892 103.24C134.604 103.042 134.307 102.914 134.001 102.855C133.7 102.798 133.416 102.816 133.152 102.908C132.887 103.001 132.667 103.168 132.491 103.409L129.996 101.702C130.443 101.064 131.01 100.62 131.696 100.372C132.385 100.12 133.127 100.062 133.922 100.198C134.72 100.336 135.508 100.671 136.285 101.203C137.059 101.733 137.647 102.333 138.049 103.006C138.451 103.679 138.656 104.361 138.663 105.052C138.672 105.74 138.476 106.378 138.074 106.965C137.662 107.576 137.12 107.942 136.45 108.061C135.783 108.183 135.105 108.076 134.416 107.739L134.359 107.823C135.128 108.495 135.574 109.197 135.697 109.932C135.823 110.668 135.657 111.368 135.198 112.03C134.77 112.656 134.205 113.085 133.504 113.318C132.808 113.55 132.039 113.581 131.194 113.411C130.356 113.24 129.515 112.866 128.671 112.289ZM138.859 119.429C137.917 118.784 137.257 118.005 136.88 117.092C136.506 116.175 136.421 115.17 136.627 114.076C136.835 112.98 137.347 111.84 138.161 110.657C138.975 109.474 139.848 108.594 140.779 108.018C141.716 107.441 142.672 107.168 143.647 107.2C144.628 107.23 145.589 107.568 146.532 108.213C147.475 108.858 148.138 109.632 148.522 110.534C148.912 111.436 149.007 112.429 148.809 113.511C148.61 114.594 148.105 115.725 147.293 116.904C146.48 118.093 145.6 118.983 144.653 119.575C143.706 120.166 142.739 120.452 141.751 120.432C140.769 120.41 139.805 120.076 138.859 119.429ZM140.321 117.292C140.884 117.677 141.535 117.702 142.275 117.367C143.018 117.029 143.796 116.262 144.608 115.067C145.142 114.286 145.503 113.589 145.691 112.974C145.882 112.356 145.922 111.825 145.811 111.383C145.701 110.941 145.458 110.591 145.081 110.334C144.522 109.951 143.876 109.925 143.144 110.256C142.415 110.583 141.649 111.329 140.846 112.494C140.301 113.283 139.928 113.991 139.727 114.617C139.529 115.246 139.485 115.786 139.594 116.238C139.706 116.686 139.948 117.037 140.321 117.292Z" fill="#304852"/>
<path d="M80.0501 111.524C81.6093 109.245 84.7208 108.661 87 110.22L156.329 157.649C158.609 159.208 159.192 162.319 157.633 164.598L142.953 186.057C141.394 188.337 138.282 188.92 136.003 187.361L66.6737 139.933C64.3945 138.374 63.8109 135.262 65.37 132.983L80.0501 111.524Z" fill="#B9DBE6"/>
<path d="M107.979 137.79L100.588 148.594L98.3718 147.078L98.338 137.901L98.2695 137.854L94.0035 144.09L91.3921 142.304L98.7835 131.499L101.031 133.036L101.024 142.171L101.114 142.232L105.373 136.007L107.979 137.79ZM105.913 152.462C105.065 151.882 104.448 151.214 104.061 150.459C103.68 149.703 103.537 148.9 103.632 148.052C103.734 147.202 104.079 146.346 104.668 145.485C105.241 144.647 105.907 144.029 106.666 143.629C107.427 143.226 108.228 143.056 109.067 143.119C109.909 143.179 110.738 143.488 111.554 144.046C112.131 144.44 112.597 144.891 112.953 145.398C113.308 145.904 113.54 146.452 113.648 147.042C113.755 147.632 113.729 148.252 113.569 148.901C113.411 149.547 113.104 150.202 112.65 150.867L112.209 151.511L105.166 146.693L106.191 145.194L110.834 148.37C111.018 148.093 111.12 147.805 111.14 147.503C111.161 147.202 111.101 146.916 110.961 146.645C110.827 146.373 110.618 146.139 110.333 145.944C110.045 145.747 109.741 145.635 109.424 145.609C109.109 145.579 108.808 145.629 108.523 145.759C108.24 145.886 108 146.086 107.803 146.359L106.76 147.884C106.534 148.214 106.401 148.549 106.36 148.888C106.322 149.223 106.375 149.541 106.52 149.842C106.666 150.142 106.904 150.406 107.234 150.632C107.463 150.788 107.692 150.899 107.922 150.963C108.152 151.027 108.375 151.043 108.593 151.012C108.811 150.98 109.015 150.897 109.204 150.764L111.526 152.453C111.064 152.916 110.532 153.231 109.928 153.396C109.33 153.561 108.688 153.568 108.001 153.418C107.316 153.264 106.62 152.945 105.913 152.462ZM118.803 149.16L118.312 152.742L121.52 151.018L124.121 152.798L119.086 155.301L118.662 160.959L116.082 159.194L116.435 155.486L113.144 157.184L110.527 155.394L115.652 152.952L116.187 147.37L118.803 149.16ZM129.873 156.732L128.574 158.632L123.462 155.135L124.761 153.235L129.873 156.732ZM127.16 152.026L129.74 153.791L124.611 161.288C124.503 161.446 124.44 161.592 124.422 161.724C124.409 161.855 124.438 161.975 124.508 162.085C124.58 162.191 124.684 162.291 124.822 162.384C124.92 162.452 125.03 162.514 125.151 162.571C125.278 162.627 125.374 162.667 125.44 162.692L124.557 164.821C124.409 164.772 124.205 164.697 123.944 164.596C123.686 164.497 123.398 164.348 123.079 164.151C122.455 163.765 121.984 163.34 121.667 162.875C121.356 162.409 121.21 161.917 121.229 161.398C121.252 160.882 121.454 160.352 121.837 159.808L127.16 152.026Z" fill="#304852"/>
</g>
<g filter="url(#filter2_d_3_16)">
<rect x="152" y="216" width="64" height="33" rx="8" fill="#B9DBE6"/>
<path d="M177.73 223.909V237H175.045L169.836 229.445H169.752V237H166.588V223.909H169.311L174.463 231.452H174.572V223.909H177.73ZM186.054 232.762V227.182H189.173V237H186.194V235.172H186.092C185.875 235.773 185.504 236.25 184.98 236.604C184.46 236.953 183.831 237.128 183.094 237.128C182.425 237.128 181.837 236.974 181.33 236.668C180.823 236.361 180.429 235.933 180.148 235.383C179.866 234.829 179.724 234.181 179.719 233.44V227.182H182.845V232.826C182.849 233.359 182.99 233.778 183.267 234.085C183.544 234.392 183.921 234.545 184.398 234.545C184.709 234.545 184.988 234.477 185.236 234.341C185.487 234.2 185.685 233.998 185.83 233.734C185.979 233.465 186.054 233.141 186.054 232.762ZM194.288 223.909V237H191.163V223.909H194.288ZM199.404 223.909V237H196.278V223.909H199.404Z" fill="#304852"/>
</g>
<g filter="url(#filter3_d_3_16)">
<rect x="249.017" y="0.0333557" width="64" height="33" rx="8" fill="#B9DBE6"/>
<path d="M274.746 7.94245V21.0334H272.062L266.852 13.478H266.769V21.0334H263.605V7.94245H266.328L271.48 15.4851H271.589V7.94245H274.746ZM283.07 16.7954V11.2152H286.19V21.0334H283.211V19.2052H283.109C282.891 19.8061 282.521 20.2834 281.997 20.637C281.477 20.9865 280.848 21.1612 280.111 21.1612C279.442 21.1612 278.854 21.0078 278.347 20.701C277.84 20.3942 277.445 19.9659 277.164 19.4162C276.883 18.8622 276.74 18.2145 276.736 17.473V11.2152H279.862V16.8593C279.866 17.392 280.007 17.8118 280.284 18.1186C280.561 18.4254 280.938 18.5788 281.415 18.5788C281.726 18.5788 282.005 18.5106 282.252 18.3743C282.504 18.2336 282.702 18.0312 282.847 17.767C282.996 17.4986 283.07 17.1747 283.07 16.7954ZM291.305 7.94245V21.0334H288.179V7.94245H291.305ZM296.42 7.94245V21.0334H293.295V7.94245H296.42Z" fill="#304852"/>
</g>
<g filter="url(#filter4_d_3_16)">
<rect x="166.994" y="36.0149" width="64" height="33" rx="8" transform="rotate(-4.49422 166.994 36.0149)" fill="#B9DBE6"/>
<path d="M193.264 41.8836L194.29 54.9342L191.614 55.1446L185.828 48.0206L185.745 48.0271L186.337 55.5593L183.183 55.8072L182.157 42.7566L184.872 42.5432L190.599 49.6589L190.707 49.6504L190.116 42.131L193.264 41.8836ZM202.256 50.0571L201.819 44.494L204.929 44.2495L205.698 54.0375L202.729 54.2709L202.585 52.4484L202.483 52.4565C202.314 53.0725 201.982 53.5773 201.487 53.971C200.996 54.3601 200.383 54.5835 199.648 54.6413C198.981 54.6937 198.383 54.5869 197.853 54.3207C197.324 54.0546 196.897 53.6585 196.574 53.1326C196.25 52.6023 196.057 51.9678 195.994 51.2289L195.504 44.9903L198.62 44.7454L199.062 50.3722C199.108 50.9029 199.282 51.3104 199.582 51.5945C199.882 51.8787 200.27 52.0021 200.746 51.9647C201.056 51.9403 201.329 51.8505 201.564 51.6952C201.804 51.5353 201.986 51.3179 202.109 51.0432C202.237 50.7639 202.286 50.4352 202.256 50.0571ZM209.772 40.5861L210.798 53.6367L207.682 53.8816L206.656 40.831L209.772 40.5861ZM214.871 40.1852L215.897 53.2359L212.781 53.4808L211.755 40.4302L214.871 40.1852Z" fill="#304852"/>
</g>
<rect x="268" y="32" width="64" height="33" rx="8" fill="#B9DBE6"/>
<path d="M293.73 39.9091V53H291.045L285.836 45.4446H285.752V53H282.588V39.9091H285.311L290.463 47.4517H290.572V39.9091H293.73ZM302.054 48.7621V43.1818H305.173V53H302.194V51.1719H302.092C301.875 51.7727 301.504 52.25 300.98 52.6037C300.46 52.9531 299.831 53.1278 299.094 53.1278C298.425 53.1278 297.837 52.9744 297.33 52.6676C296.823 52.3608 296.429 51.9325 296.148 51.3828C295.866 50.8288 295.724 50.1811 295.719 49.4396V43.1818H298.845V48.826C298.849 49.3587 298.99 49.7784 299.267 50.0852C299.544 50.392 299.921 50.5455 300.398 50.5455C300.709 50.5455 300.988 50.4773 301.236 50.3409C301.487 50.2003 301.685 49.9979 301.83 49.7337C301.979 49.4652 302.054 49.1413 302.054 48.7621ZM310.288 39.9091V53H307.163V39.9091H310.288ZM315.404 39.9091V53H312.278V39.9091H315.404Z" fill="#304852"/>
<defs>
<filter id="filter0_d_3_16" x="212" y="65" width="135" height="193" filterUnits="userSpaceOnUse" color-interpolation-filters="sRGB">
<feFlood flood-opacity="0" result="BackgroundImageFix"/>
<feColorMatrix in="SourceAlpha" type="matrix" values="0 0 0 0 0 0 0 0 0 0 0 0 0 0 0 0 0 0 127 0" result="hardAlpha"/>
<feOffset dy="5"/>
<feGaussianBlur stdDeviation="2"/>
<feComposite in2="hardAlpha" operator="out"/>
<feColorMatrix type="matrix" values="0 0 0 0 0 0 0 0 0 0 0 0 0 0 0 0 0 0 0.25 0"/>
<feBlend mode="normal" in2="BackgroundImageFix" result="effect1_dropShadow_3_16"/>
<feBlend mode="normal" in="SourceGraphic" in2="effect1_dropShadow_3_16" result="shape"/>
</filter>
<filter id="filter1_d_3_16" x="13.0588" y="33.1478" width="207.353" height="223.214" filterUnits="userSpaceOnUse" color-interpolation-filters="sRGB">
<feFlood flood-opacity="0" result="BackgroundImageFix"/>
<feColorMatrix in="SourceAlpha" type="matrix" values="0 0 0 0 0 0 0 0 0 0 0 0 0 0 0 0 0 0 127 0" result="hardAlpha"/>
<feOffset dy="5"/>
<feGaussianBlur stdDeviation="2"/>
<feComposite in2="hardAlpha" operator="out"/>
<feColorMatrix type="matrix" values="0 0 0 0 0 0 0 0 0 0 0 0 0 0 0 0 0 0 0.25 0"/>
<feBlend mode="normal" in2="BackgroundImageFix" result="effect1_dropShadow_3_16"/>
<feBlend mode="normal" in="SourceGraphic" in2="effect1_dropShadow_3_16" result="shape"/>
</filter>
<filter id="filter2_d_3_16" x="148" y="216" width="72" height="41" filterUnits="userSpaceOnUse" color-interpolation-filters="sRGB">
<feFlood flood-opacity="0" result="BackgroundImageFix"/>
<feColorMatrix in="SourceAlpha" type="matrix" values="0 0 0 0 0 0 0 0 0 0 0 0 0 0 0 0 0 0 127 0" result="hardAlpha"/>
<feOffset dy="4"/>
<feGaussianBlur stdDeviation="2"/>
<feComposite in2="hardAlpha" operator="out"/>
<feColorMatrix type="matrix" values="0 0 0 0 0 0 0 0 0 0 0 0 0 0 0 0 0 0 0.25 0"/>
<feBlend mode="normal" in2="BackgroundImageFix" result="effect1_dropShadow_3_16"/>
<feBlend mode="normal" in="SourceGraphic" in2="effect1_dropShadow_3_16" result="shape"/>
</filter>
<filter id="filter3_d_3_16" x="245.017" y="0.0333557" width="72" height="41" filterUnits="userSpaceOnUse" color-interpolation-filters="sRGB">
<feFlood flood-opacity="0" result="BackgroundImageFix"/>
<feColorMatrix in="SourceAlpha" type="matrix" values="0 0 0 0 0 0 0 0 0 0 0 0 0 0 0 0 0 0 127 0" result="hardAlpha"/>
<feOffset dy="4"/>
<feGaussianBlur stdDeviation="2"/>
<feComposite in2="hardAlpha" operator="out"/>
<feColorMatrix type="matrix" values="0 0 0 0 0 0 0 0 0 0 0 0 0 0 0 0 0 0 0.25 0"/>
<feBlend mode="normal" in2="BackgroundImageFix" result="effect1_dropShadow_3_16"/>
<feBlend mode="normal" in="SourceGraphic" in2="effect1_dropShadow_3_16" result="shape"/>
</filter>
<filter id="filter4_d_3_16" x="163.596" y="31.6019" width="73.1853" height="44.7097" filterUnits="userSpaceOnUse" color-interpolation-filters="sRGB">
<feFlood flood-opacity="0" result="BackgroundImageFix"/>
<feColorMatrix in="SourceAlpha" type="matrix" values="0 0 0 0 0 0 0 0 0 0 0 0 0 0 0 0 0 0 127 0" result="hardAlpha"/>
<feOffset dy="4"/>
<feGaussianBlur stdDeviation="2"/>
<feComposite in2="hardAlpha" operator="out"/>
<feColorMatrix type="matrix" values="0 0 0 0 0 0 0 0 0 0 0 0 0 0 0 0 0 0 0.25 0"/>
<feBlend mode="normal" in2="BackgroundImageFix" result="effect1_dropShadow_3_16"/>
<feBlend mode="normal" in="SourceGraphic" in2="effect1_dropShadow_3_16" result="shape"/>
</filter>
</defs>
</svg>
