<svg width="375" height="127" viewBox="0 0 375 127" fill="none" xmlns="http://www.w3.org/2000/svg">
<g filter="url(#filter0_d_3_18)">
<rect x="2.5" y="2.5" width="117" height="114" rx="7.5" fill="#933533" stroke="#DF5A57" stroke-width="5"/>
<rect x="14" y="51" width="94" height="49" rx="10" fill="#DF5A57"/>
<path d="M60.7747 65.5696C61.769 65.5696 62.719 65.7324 63.6245 66.0579C64.5301 66.3775 65.3379 66.8894 66.0482 67.5938C66.7584 68.2921 67.3177 69.2125 67.7261 70.3548C68.1345 71.497 68.3386 72.8909 68.3386 74.5362C68.3446 76.0514 68.167 77.4097 67.806 78.6112C67.4449 79.8067 66.9271 80.8247 66.2524 81.6651C65.5836 82.5056 64.7786 83.1477 63.8376 83.5916C62.8965 84.0296 61.846 84.2486 60.6859 84.2486C59.4075 84.2486 58.2801 84.003 57.3035 83.5117C56.3328 83.0146 55.5546 82.3458 54.9686 81.5053C54.3886 80.6649 54.0424 79.7238 53.9299 78.6822H58.2534C58.3895 79.2859 58.6766 79.7416 59.1146 80.0494C59.5525 80.3512 60.0763 80.5021 60.6859 80.5021C61.7986 80.5021 62.6302 80.0198 63.1806 79.055C63.731 78.0903 64.0063 76.7794 64.0063 75.1222H63.8997C63.6452 75.6667 63.2842 76.1342 62.8166 76.5249C62.355 76.9155 61.8194 77.2144 61.2097 77.4215C60.6001 77.6287 59.958 77.7322 59.2832 77.7322C58.1942 77.7322 57.2325 77.4837 56.3979 76.9865C55.5694 76.4893 54.9183 75.8058 54.4448 74.9357C53.9773 74.0657 53.7405 73.0714 53.7346 71.9528C53.7287 70.698 54.0216 69.5913 54.6135 68.6325C55.2054 67.6677 56.031 66.9161 57.0904 66.3775C58.1498 65.833 59.3779 65.5637 60.7747 65.5696ZM60.8014 68.9432C60.2569 68.9432 59.7715 69.0704 59.3454 69.3249C58.9252 69.5794 58.5937 69.9227 58.3511 70.3548C58.1084 70.7868 57.99 71.2721 57.996 71.8107C58.0019 72.3493 58.1232 72.8346 58.36 73.2667C58.6026 73.6987 58.9311 74.042 59.3454 74.2965C59.7656 74.551 60.245 74.6783 60.7836 74.6783C61.1861 74.6783 61.5589 74.6043 61.9022 74.4563C62.2455 74.3084 62.5444 74.1042 62.7989 73.8438C63.0534 73.5774 63.2516 73.2696 63.3937 72.9205C63.5417 72.5713 63.6127 72.1984 63.6068 71.8018C63.6008 71.2751 63.4765 70.7957 63.2339 70.3636C62.9912 69.9316 62.6568 69.5883 62.2307 69.3338C61.8105 69.0734 61.334 68.9432 60.8014 68.9432Z" fill="white"/>
<path d="M60.9978 39.4439C59.4116 39.4439 58.0444 39.0681 56.8962 38.3164C55.748 37.5588 54.8632 36.4728 54.2417 35.0582C53.6203 33.6378 53.3125 31.9303 53.3184 29.9357C53.3244 27.9412 53.6351 26.2485 54.2506 24.8576C54.8721 23.4608 55.7539 22.3984 56.8962 21.6705C58.0444 20.9366 59.4116 20.5696 60.9978 20.5696C62.584 20.5696 63.9511 20.9366 65.0993 21.6705C66.2535 22.3984 67.1412 23.4608 67.7627 24.8576C68.3841 26.2544 68.6919 27.9471 68.686 29.9357C68.686 31.9362 68.3753 33.6467 67.7538 35.0671C67.1324 36.4876 66.2475 37.5736 65.0993 38.3253C63.9571 39.071 62.5899 39.4439 60.9978 39.4439ZM60.9978 35.8484C61.9448 35.8484 62.7112 35.366 63.2971 34.4013C63.8831 33.4306 64.1731 31.9421 64.1672 29.9357C64.1672 28.6218 64.034 27.5387 63.7677 26.6864C63.5013 25.8282 63.1314 25.189 62.6579 24.7688C62.1845 24.3486 61.6311 24.1385 60.9978 24.1385C60.0567 24.1385 59.2962 24.6149 58.7162 25.5678C58.1362 26.5148 57.8432 27.9708 57.8373 29.9357C57.8314 31.2674 57.9586 32.3712 58.219 33.2472C58.4854 34.1231 58.8582 34.7771 59.3376 35.2092C59.817 35.6353 60.3704 35.8484 60.9978 35.8484Z" fill="white"/>
<rect x="246.5" y="2.5" width="117" height="114" rx="7.5" fill="#933533" stroke="#DF5A57" stroke-width="5"/>
<rect x="258" y="51" width="94" height="49" rx="10" fill="#DF5A57"/>
<path d="M305.085 84.2486C303.76 84.2486 302.582 84.0089 301.552 83.5295C300.522 83.0501 299.708 82.3902 299.111 81.5497C298.519 80.7093 298.211 79.7446 298.187 78.6555H302.449C302.484 79.3243 302.756 79.8629 303.265 80.2713C303.774 80.6738 304.381 80.875 305.085 80.875C305.636 80.875 306.124 80.7537 306.55 80.511C306.976 80.2683 307.311 79.928 307.553 79.4901C307.796 79.0462 307.915 78.5372 307.909 77.9631C307.915 77.3771 307.793 76.8652 307.545 76.4272C307.302 75.9892 306.965 75.6489 306.533 75.4062C306.106 75.1577 305.615 75.0334 305.059 75.0334C304.532 75.0275 304.032 75.1429 303.558 75.3796C303.091 75.6164 302.736 75.9389 302.493 76.3473L298.614 75.6193L299.404 65.8182H311.069V69.3604H303.017L302.6 73.6484H302.706C303.008 73.1454 303.493 72.7311 304.162 72.4055C304.837 72.0741 305.603 71.9084 306.462 71.9084C307.551 71.9084 308.521 72.1629 309.373 72.6719C310.232 73.175 310.906 73.8733 311.398 74.767C311.895 75.6607 312.143 76.6847 312.143 77.8388C312.143 79.0876 311.847 80.1944 311.256 81.1591C310.67 82.1238 309.847 82.8814 308.788 83.4318C307.734 83.9763 306.5 84.2486 305.085 84.2486Z" fill="white"/>
<path d="M298.369 39V35.8395L305.001 30.0334C305.498 29.5836 305.921 29.1722 306.271 28.7994C306.62 28.4206 306.886 28.0418 307.07 27.663C307.253 27.2783 307.345 26.861 307.345 26.4112C307.345 25.9081 307.235 25.479 307.016 25.1239C306.797 24.7629 306.496 24.4847 306.111 24.2894C305.726 24.0941 305.285 23.9964 304.788 23.9964C304.285 23.9964 303.844 24.1 303.465 24.3072C303.086 24.5084 302.791 24.8014 302.577 25.1861C302.37 25.5708 302.267 26.0384 302.267 26.5888H298.103C298.103 25.3518 298.381 24.2835 298.938 23.3839C299.494 22.4843 300.275 21.7918 301.281 21.3065C302.293 20.8152 303.468 20.5696 304.806 20.5696C306.185 20.5696 307.383 20.8004 308.401 21.2621C309.419 21.7237 310.206 22.3688 310.763 23.1974C311.325 24.0201 311.606 24.976 311.606 26.065C311.606 26.7575 311.467 27.444 311.189 28.1246C310.911 28.8053 310.411 29.5569 309.689 30.3796C308.972 31.2023 307.954 32.1877 306.635 33.3359L304.46 35.3423V35.4577H311.828V39H298.369Z" fill="white"/>
<rect x="124.5" y="2.5" width="117" height="114" rx="7.5" fill="#933533" stroke="#DF5A57" stroke-width="5"/>
<rect x="136" y="51" width="94" height="49" rx="10" fill="#DF5A57"/>
<path d="M174.057 84.2486C172.672 84.2486 171.444 84.0118 170.372 83.5384C169.307 83.0589 168.467 82.399 167.851 81.5586C167.236 80.7182 166.922 79.7505 166.91 78.6555H171.331C171.349 79.0521 171.476 79.4042 171.713 79.712C171.95 80.0138 172.272 80.2506 172.681 80.4222C173.089 80.5939 173.554 80.6797 174.074 80.6797C174.595 80.6797 175.054 80.5879 175.451 80.4045C175.853 80.2151 176.167 79.9576 176.392 79.6321C176.616 79.3007 176.726 78.9219 176.72 78.4957C176.726 78.0696 176.605 77.6908 176.356 77.3594C176.107 77.0279 175.755 76.7705 175.3 76.587C174.85 76.4035 174.317 76.3118 173.702 76.3118H171.935V73.1868H173.702C174.24 73.1868 174.714 73.098 175.122 72.9205C175.536 72.7429 175.859 72.4943 176.09 72.1747C176.321 71.8492 176.433 71.4763 176.427 71.0561C176.433 70.6477 176.335 70.2897 176.134 69.9819C175.939 69.6682 175.664 69.4255 175.308 69.2539C174.959 69.0823 174.554 68.9964 174.092 68.9964C173.607 68.9964 173.166 69.0823 172.769 69.2539C172.379 69.4255 172.068 69.6682 171.837 69.9819C171.606 70.2956 171.485 70.6596 171.473 71.0739H167.274C167.286 69.9908 167.588 69.0379 168.18 68.2152C168.771 67.3866 169.576 66.7385 170.594 66.271C171.618 65.8034 172.784 65.5696 174.092 65.5696C175.394 65.5696 176.54 65.7975 177.528 66.2532C178.516 66.7089 179.286 67.3304 179.836 68.1175C180.387 68.8988 180.662 69.7836 180.662 70.772C180.668 71.7959 180.333 72.6393 179.659 73.3022C178.99 73.9651 178.129 74.3735 177.075 74.5273V74.6694C178.484 74.8351 179.546 75.2908 180.262 76.0366C180.984 76.7823 181.342 77.7145 181.337 78.8331C181.337 79.8866 181.026 80.8217 180.404 81.6385C179.789 82.4493 178.931 83.0885 177.83 83.5561C176.735 84.0178 175.477 84.2486 174.057 84.2486ZM191.335 84.4439C189.749 84.4439 188.382 84.0681 187.234 83.3164C186.085 82.5588 185.201 81.4728 184.579 80.0582C183.958 78.6378 183.65 76.9303 183.656 74.9357C183.662 72.9412 183.972 71.2485 184.588 69.8576C185.209 68.4608 186.091 67.3984 187.234 66.6705C188.382 65.9366 189.749 65.5696 191.335 65.5696C192.921 65.5696 194.289 65.9366 195.437 66.6705C196.591 67.3984 197.479 68.4608 198.1 69.8576C198.722 71.2544 199.029 72.9471 199.023 74.9357C199.023 76.9362 198.713 78.6467 198.091 80.0671C197.47 81.4876 196.585 82.5736 195.437 83.3253C194.294 84.071 192.927 84.4439 191.335 84.4439ZM191.335 80.8484C192.282 80.8484 193.049 80.366 193.635 79.4013C194.22 78.4306 194.51 76.9421 194.505 74.9357C194.505 73.6218 194.371 72.5387 194.105 71.6864C193.839 70.8282 193.469 70.189 192.995 69.7688C192.522 69.3486 191.968 69.1385 191.335 69.1385C190.394 69.1385 189.634 69.6149 189.054 70.5678C188.474 71.5148 188.181 72.9708 188.175 74.9357C188.169 76.2674 188.296 77.3712 188.556 78.2472C188.823 79.1231 189.196 79.7771 189.675 80.2092C190.154 80.6353 190.708 80.8484 191.335 80.8484Z" fill="white"/>
<path d="M186.534 20.8182V39H182.149V24.9197H182.042L177.976 27.4055V23.6058L182.46 20.8182H186.534Z" fill="white"/>
</g>
<defs>
<filter id="filter0_d_3_18" x="0" y="0" width="375" height="127" filterUnits="userSpaceOnUse" color-interpolation-filters="sRGB">
<feFlood flood-opacity="0" result="BackgroundImageFix"/>
<feColorMatrix in="SourceAlpha" type="matrix" values="0 0 0 0 0 0 0 0 0 0 0 0 0 0 0 0 0 0 127 0" result="hardAlpha"/>
<feOffset dx="5" dy="4"/>
<feGaussianBlur stdDeviation="2"/>
<feComposite in2="hardAlpha" operator="out"/>
<feColorMatrix type="matrix" values="0 0 0 0 0 0 0 0 0 0 0 0 0 0 0 0 0 0 0.25 0"/>
<feBlend mode="normal" in2="BackgroundImageFix" result="effect1_dropShadow_3_18"/>
<feBlend mode="normal" in="SourceGraphic" in2="effect1_dropShadow_3_18" result="shape"/>
</filter>
</defs>
</svg>
