<svg width="210" height="232" viewBox="0 0 210 232" fill="none" xmlns="http://www.w3.org/2000/svg">
<rect x="1.5" y="230.5" width="89" height="100" rx="8.5" transform="rotate(-90 1.5 230.5)" fill="#113C51" stroke="#477186" stroke-width="3"/>
<rect x="61" y="218" width="64" height="25" rx="5" transform="rotate(-90 61 218)" fill="#477186"/>
<path d="M65.9091 194.333H79V196.442L70.0831 202.611V202.719H79V205.091H65.9091V202.968L74.8324 196.807V196.691H65.9091V194.333ZM79.1918 187.505C79.1918 188.489 78.9872 189.339 78.5781 190.055C78.1648 190.767 77.581 191.314 76.8267 191.698C76.0682 192.081 75.1754 192.273 74.1484 192.273C73.1385 192.273 72.2521 192.081 71.4893 191.698C70.7223 191.31 70.1257 190.769 69.6996 190.074C69.2692 189.38 69.054 188.563 69.054 187.626C69.054 187.021 69.152 186.45 69.348 185.913C69.5398 185.372 69.8381 184.894 70.2429 184.481C70.6477 184.063 71.1634 183.735 71.7898 183.497C72.4119 183.258 73.1534 183.139 74.0142 183.139H74.7237V191.186H73.1641V185.357C72.7209 185.361 72.3267 185.457 71.9815 185.644C71.6321 185.832 71.3572 186.094 71.157 186.431C70.9567 186.763 70.8565 187.151 70.8565 187.594C70.8565 188.067 70.9716 188.483 71.2017 188.84C71.4276 189.198 71.7259 189.478 72.0966 189.678C72.4631 189.874 72.8658 189.974 73.3047 189.978H74.6662C75.2372 189.978 75.7273 189.874 76.1364 189.665C76.5412 189.456 76.8523 189.164 77.0696 188.789C77.2827 188.414 77.3892 187.975 77.3892 187.473C77.3892 187.136 77.3423 186.831 77.2486 186.559C77.1506 186.286 77.0078 186.049 76.8203 185.849C76.6328 185.649 76.4006 185.497 76.1236 185.395L76.3665 183.235C76.9375 183.371 77.4361 183.631 77.8622 184.014C78.2841 184.394 78.6122 184.88 78.8466 185.472C79.0767 186.064 79.1918 186.742 79.1918 187.505ZM69.1818 179.5L72.8061 177.519L69.1818 175.505V173.057L74.0909 176.016L79 173.006V175.441L75.4652 177.519L79 179.577V182.031L74.0909 179.04L69.1818 181.955V179.5ZM69.1818 166.364H70.9716V172.009H69.1818V166.364ZM66.8295 170.615V168.301H76.0469C76.358 168.301 76.5966 168.254 76.7628 168.161C76.9247 168.063 77.0355 167.935 77.0952 167.777C77.1548 167.619 77.1847 167.445 77.1847 167.253C77.1847 167.108 77.174 166.976 77.1527 166.857C77.1314 166.733 77.1122 166.639 77.0952 166.575L78.9041 166.185C78.9467 166.309 78.9936 166.486 79.0447 166.716C79.0959 166.942 79.1257 167.219 79.1342 167.547C79.1513 168.127 79.0639 168.649 78.8722 169.113C78.6761 169.578 78.3736 169.946 77.9645 170.219C77.5554 170.487 77.044 170.619 76.4304 170.615H66.8295Z" fill="white"/>
<rect x="24" y="218" width="64" height="25" rx="5" transform="rotate(-90 24 218)" fill="#477186"/>
<path d="M28.9091 189.839H42V192.211H31.2166V192.287L33.1726 195.349H30.9993L28.9091 192.096V189.839ZM42.2493 181.677C42.2493 182.729 41.983 183.633 41.4503 184.387C40.9134 185.137 40.1399 185.714 39.13 186.119C38.1158 186.52 36.8949 186.72 35.4673 186.72C34.0398 186.716 32.8253 186.513 31.8239 186.113C30.8182 185.708 30.0511 185.13 29.5227 184.38C28.9943 183.626 28.7301 182.725 28.7301 181.677C28.7301 180.628 28.9943 179.727 29.5227 178.973C30.0511 178.218 30.8182 177.641 31.8239 177.241C32.8295 176.836 34.044 176.633 35.4673 176.633C36.8991 176.633 38.1222 176.836 39.1364 177.241C40.1463 177.641 40.9176 178.218 41.4503 178.973C41.983 179.723 42.2493 180.624 42.2493 181.677ZM40.2486 181.677C40.2486 180.858 39.8459 180.213 39.0405 179.74C38.2308 179.263 37.0398 179.024 35.4673 179.024C34.4276 179.024 33.554 179.133 32.8466 179.35C32.1392 179.567 31.6065 179.874 31.2486 180.27C30.8864 180.667 30.7053 181.135 30.7053 181.677C30.7053 182.491 31.1101 183.134 31.9197 183.607C32.7251 184.08 33.9077 184.319 35.4673 184.323C36.5114 184.327 37.3892 184.223 38.1009 184.01C38.8125 183.792 39.3494 183.486 39.7116 183.089C40.0696 182.693 40.2486 182.222 40.2486 181.677Z" fill="white"/>
<rect x="31.7764" y="43.0773" width="89" height="100" rx="8.5" transform="rotate(-11.8662 31.7764 43.0773)" fill="#113C51" stroke="#477186" stroke-width="3"/>
<rect x="56.2441" y="98.7354" width="64" height="25" rx="5" transform="rotate(-11.8662 56.2441 98.7354)" fill="#477186"/>
<path d="M80.415 98.673L83.1068 111.484L81.0425 111.918L73.1724 104.46L73.0661 104.482L74.8997 113.209L72.5789 113.696L69.887 100.885L71.9639 100.449L79.829 107.914L79.9416 107.891L78.1067 99.158L80.415 98.673ZM89.8286 110.268C88.8653 110.47 87.9913 110.445 87.2065 110.192C86.4251 109.933 85.7692 109.475 85.2387 108.815C84.7074 108.152 84.3362 107.318 84.125 106.313C83.9173 105.324 83.9227 104.417 84.1412 103.592C84.363 102.762 84.77 102.067 85.3621 101.507C85.9533 100.943 86.7077 100.564 87.6252 100.372C88.2174 100.247 88.7963 100.226 89.3621 100.307C89.9312 100.383 90.4596 100.577 90.9473 100.888C91.4393 101.199 91.8664 101.636 92.2287 102.2C92.5902 102.76 92.8595 103.461 93.0365 104.303L93.1824 104.997L85.3067 106.652L84.986 105.126L90.691 103.927C90.5957 103.494 90.4208 103.128 90.1663 102.829C89.911 102.526 89.598 102.311 89.2274 102.184C88.8609 102.056 88.4608 102.038 88.0271 102.129C87.5642 102.226 87.1813 102.424 86.8783 102.723C86.5744 103.018 86.3626 103.367 86.2428 103.771C86.1263 104.17 86.1111 104.585 86.1972 105.015L86.4772 106.348C86.5946 106.906 86.7976 107.364 87.086 107.722C87.3736 108.075 87.7232 108.32 88.1349 108.455C88.5457 108.586 88.9972 108.6 89.4893 108.497C89.8187 108.428 90.1072 108.319 90.3549 108.172C90.6016 108.02 90.8037 107.831 90.9612 107.607C91.1186 107.382 91.2189 107.123 91.262 106.831L93.4263 106.625C93.4103 107.212 93.2584 107.753 92.9707 108.249C92.6863 108.74 92.2784 109.161 91.7469 109.512C91.2145 109.859 90.5751 110.111 89.8286 110.268ZM95.6037 98.8257L98.2881 101.965L99.5134 98.0042L101.909 97.5008L100.022 102.914L103.978 107.099L101.595 107.599L98.8349 104.567L97.5475 108.45L95.1454 108.955L97.0635 103.535L93.2016 99.3305L95.6037 98.8257ZM108.459 96.1247L108.827 97.8762L103.303 99.0368L102.935 97.2853L108.459 96.1247ZM103.815 94.6967L106.08 94.2209L107.975 103.241C108.039 103.546 108.134 103.77 108.26 103.913C108.389 104.051 108.537 104.133 108.703 104.159C108.87 104.185 109.047 104.179 109.235 104.139C109.377 104.109 109.504 104.072 109.616 104.026C109.733 103.98 109.82 103.942 109.879 103.912L110.633 105.602C110.521 105.67 110.357 105.752 110.143 105.849C109.932 105.946 109.667 106.032 109.348 106.108C108.784 106.243 108.255 106.265 107.761 106.173C107.267 106.077 106.844 105.857 106.493 105.512C106.146 105.167 105.911 104.694 105.789 104.092L103.815 94.6967Z" fill="white"/>
<rect x="48.6359" y="62.5261" width="64" height="25" rx="5" transform="rotate(-11.8662 48.6359 62.5261)" fill="#477186"/>
<path d="M77.2043 61.5396L79.8962 74.3508L77.5754 74.8384L75.358 64.2855L75.283 64.3013L72.6888 66.845L72.2419 64.7182L74.9961 62.0036L77.2043 61.5396ZM87.9356 72.9163C86.9056 73.1327 85.9667 73.0579 85.119 72.6917C84.2747 72.3204 83.5505 71.6823 82.9467 70.7771C82.3461 69.867 81.8991 68.7134 81.6055 67.3163C81.3162 65.9184 81.2645 64.6882 81.4506 63.6258C81.64 62.5584 82.0473 61.689 82.6727 61.0177C83.3021 60.3455 84.1298 59.9016 85.1557 59.686C86.1816 59.4705 87.118 59.5437 87.9648 59.9057C88.8116 60.2677 89.5344 60.8997 90.1332 61.8015C90.7361 62.7024 91.184 63.8493 91.4766 65.2422C91.7711 66.6434 91.8245 67.8819 91.6368 68.9577C91.4525 70.0284 91.046 70.902 90.4174 71.5784C89.793 72.2539 88.9657 72.6999 87.9356 72.9163ZM87.5242 70.9583C88.3249 70.7901 88.8739 70.2633 89.1712 69.3778C89.4718 68.4873 89.4604 67.2726 89.1371 65.7338C88.9233 64.7162 88.6373 63.8837 88.2792 63.2361C87.921 62.5885 87.5112 62.1303 87.0498 61.8615C86.5875 61.5885 86.0915 61.5077 85.5619 61.619C84.7653 61.7863 84.2189 62.3148 83.9225 63.2044C83.6252 64.0899 83.6348 65.2962 83.9513 66.8234C84.1618 67.846 84.4445 68.6836 84.7994 69.3363C85.1584 69.988 85.5691 70.4504 86.0314 70.7234C86.4928 70.9922 86.9904 71.0705 87.5242 70.9583Z" fill="white"/>
<rect x="104.5" y="130.5" width="89" height="100" rx="8.5" fill="#113C51" stroke="#477186" stroke-width="3"/>
<rect x="117" y="190" width="64" height="25" rx="5" fill="#477186"/>
<path d="M140.667 194.909V208H138.558L132.389 199.083H132.281V208H129.909V194.909H132.032L138.193 203.832H138.309V194.909H140.667ZM147.495 208.192C146.511 208.192 145.661 207.987 144.945 207.578C144.233 207.165 143.686 206.581 143.302 205.827C142.919 205.068 142.727 204.175 142.727 203.148C142.727 202.138 142.919 201.252 143.302 200.489C143.69 199.722 144.231 199.126 144.926 198.7C145.62 198.269 146.437 198.054 147.374 198.054C147.979 198.054 148.55 198.152 149.087 198.348C149.628 198.54 150.106 198.838 150.519 199.243C150.937 199.648 151.265 200.163 151.503 200.79C151.742 201.412 151.861 202.153 151.861 203.014V203.724H143.814V202.164H149.643C149.639 201.721 149.543 201.327 149.356 200.982C149.168 200.632 148.906 200.357 148.569 200.157C148.237 199.957 147.849 199.857 147.406 199.857C146.933 199.857 146.517 199.972 146.16 200.202C145.802 200.428 145.522 200.726 145.322 201.097C145.126 201.463 145.026 201.866 145.022 202.305V203.666C145.022 204.237 145.126 204.727 145.335 205.136C145.544 205.541 145.836 205.852 146.211 206.07C146.586 206.283 147.025 206.389 147.527 206.389C147.864 206.389 148.169 206.342 148.441 206.249C148.714 206.151 148.951 206.008 149.151 205.82C149.351 205.633 149.503 205.401 149.605 205.124L151.765 205.366C151.629 205.937 151.369 206.436 150.986 206.862C150.606 207.284 150.12 207.612 149.528 207.847C148.936 208.077 148.258 208.192 147.495 208.192ZM155.5 198.182L157.481 201.806L159.495 198.182H161.943L158.984 203.091L161.994 208H159.559L157.481 204.465L155.423 208H152.969L155.96 203.091L153.045 198.182H155.5ZM168.636 198.182V199.972H162.991V198.182H168.636ZM164.385 195.83H166.699V205.047C166.699 205.358 166.746 205.597 166.839 205.763C166.937 205.925 167.065 206.036 167.223 206.095C167.381 206.155 167.555 206.185 167.747 206.185C167.892 206.185 168.024 206.174 168.143 206.153C168.267 206.131 168.361 206.112 168.425 206.095L168.815 207.904C168.691 207.947 168.514 207.994 168.284 208.045C168.058 208.096 167.781 208.126 167.453 208.134C166.873 208.151 166.351 208.064 165.887 207.872C165.422 207.676 165.054 207.374 164.781 206.964C164.513 206.555 164.381 206.044 164.385 205.43V195.83Z" fill="white"/>
<rect x="117" y="153" width="64" height="25" rx="5" fill="#477186"/>
<path d="M142.996 171.179C142.076 171.179 141.258 171.021 140.542 170.706C139.83 170.391 139.268 169.952 138.854 169.389C138.441 168.827 138.221 168.177 138.196 167.44H140.599C140.621 167.793 140.738 168.102 140.951 168.366C141.164 168.626 141.447 168.829 141.801 168.974C142.155 169.119 142.551 169.191 142.99 169.191C143.459 169.191 143.874 169.11 144.236 168.948C144.599 168.782 144.882 168.552 145.086 168.258C145.291 167.964 145.391 167.625 145.387 167.241C145.391 166.845 145.289 166.496 145.08 166.193C144.871 165.891 144.569 165.654 144.172 165.484C143.78 165.313 143.307 165.228 142.753 165.228H141.596V163.4H142.753C143.209 163.4 143.608 163.321 143.949 163.163C144.294 163.006 144.564 162.784 144.76 162.499C144.956 162.209 145.052 161.874 145.048 161.495C145.052 161.124 144.969 160.803 144.799 160.53C144.633 160.253 144.396 160.038 144.089 159.884C143.787 159.731 143.431 159.654 143.022 159.654C142.621 159.654 142.251 159.727 141.91 159.871C141.569 160.016 141.294 160.223 141.085 160.491C140.876 160.756 140.765 161.071 140.753 161.438H138.471C138.488 160.705 138.699 160.061 139.104 159.507C139.513 158.949 140.058 158.514 140.74 158.203C141.422 157.888 142.187 157.73 143.035 157.73C143.908 157.73 144.667 157.894 145.31 158.222C145.958 158.546 146.459 158.983 146.812 159.533C147.166 160.082 147.343 160.69 147.343 161.354C147.347 162.092 147.13 162.71 146.691 163.208C146.256 163.707 145.685 164.033 144.978 164.186V164.288C145.898 164.416 146.604 164.757 147.094 165.311C147.588 165.861 147.833 166.545 147.829 167.363C147.829 168.096 147.62 168.752 147.202 169.332C146.789 169.907 146.218 170.359 145.489 170.687C144.765 171.015 143.934 171.179 142.996 171.179ZM154.862 171.249C153.809 171.249 152.906 170.983 152.151 170.45C151.401 169.913 150.824 169.14 150.419 168.13C150.018 167.116 149.818 165.895 149.818 164.467C149.822 163.04 150.025 161.825 150.425 160.824C150.83 159.818 151.408 159.051 152.158 158.523C152.912 157.994 153.813 157.73 154.862 157.73C155.91 157.73 156.811 157.994 157.565 158.523C158.32 159.051 158.897 159.818 159.298 160.824C159.702 161.83 159.905 163.044 159.905 164.467C159.905 165.899 159.702 167.122 159.298 168.136C158.897 169.146 158.32 169.918 157.565 170.45C156.815 170.983 155.914 171.249 154.862 171.249ZM154.862 169.249C155.68 169.249 156.325 168.846 156.798 168.04C157.276 167.231 157.514 166.04 157.514 164.467C157.514 163.428 157.406 162.554 157.188 161.847C156.971 161.139 156.664 160.607 156.268 160.249C155.871 159.886 155.403 159.705 154.862 159.705C154.048 159.705 153.404 160.11 152.931 160.92C152.458 161.725 152.219 162.908 152.215 164.467C152.211 165.511 152.315 166.389 152.528 167.101C152.746 167.812 153.053 168.349 153.449 168.712C153.845 169.07 154.316 169.249 154.862 169.249Z" fill="white"/>
<rect x="152" y="104" width="58" height="26" rx="5" fill="#477186"/>
<path d="M176.209 109.909V123H174.1L167.931 114.083H167.823V123H165.451V109.909H167.574L173.735 118.832H173.85V109.909H176.209ZM184.949 118.871V113.182H187.263V123H185.019V121.255H184.917C184.695 121.805 184.331 122.254 183.824 122.604C183.321 122.953 182.701 123.128 181.964 123.128C181.32 123.128 180.751 122.985 180.257 122.7C179.767 122.41 179.383 121.99 179.106 121.44C178.829 120.886 178.691 120.217 178.691 119.433V113.182H181.005V119.075C181.005 119.697 181.175 120.192 181.516 120.558C181.857 120.925 182.305 121.108 182.858 121.108C183.199 121.108 183.53 121.025 183.849 120.859C184.169 120.692 184.431 120.445 184.635 120.117C184.844 119.785 184.949 119.369 184.949 118.871ZM191.956 109.909V123H189.642V109.909H191.956ZM196.649 109.909V123H194.335V109.909H196.649Z" fill="white"/>
<rect x="144.173" y="49" width="58" height="26" rx="5" transform="rotate(41.3379 144.173 49)" fill="#477186"/>
<path d="M158.447 69.4268L149.8 79.2558L148.217 77.8626L149.475 67.0934L149.393 67.0216L143.504 73.7167L141.723 72.1503L150.37 62.3213L151.963 63.723L150.696 74.4928L150.782 74.5688L156.676 67.8689L158.447 69.4268ZM159.09 81.9279L162.847 77.6565L164.585 79.1849L158.1 86.5566L156.415 85.0747L157.568 83.7645L157.491 83.697C156.961 83.9633 156.391 84.0602 155.779 83.9877C155.171 83.9179 154.59 83.6396 154.037 83.1526C153.553 82.7276 153.221 82.2447 153.038 81.7038C152.861 81.1626 152.851 80.5941 153.006 79.9984C153.164 79.3995 153.502 78.8057 154.02 78.217L158.149 73.5233L159.886 75.0516L155.993 79.4766C155.582 79.9437 155.384 80.4274 155.398 80.9278C155.412 81.4281 155.627 81.8612 156.043 82.2271C156.299 82.4523 156.601 82.608 156.951 82.6943C157.301 82.7807 157.661 82.7682 158.031 82.6569C158.408 82.5453 158.76 82.3023 159.09 81.9279ZM170.27 79.8276L161.624 89.6566L159.886 88.1282L168.533 78.2992L170.27 79.8276ZM173.794 82.9275L165.147 92.7565L163.41 91.2282L172.057 81.3992L173.794 82.9275Z" fill="white"/>
<rect x="50" y="12.8251" width="58" height="26" rx="5" transform="rotate(-12.7749 50 12.8251)" fill="#477186"/>
<path d="M74.9165 13.2347L77.8112 26.0016L75.754 26.468L67.7667 19.1358L67.6607 19.1598L69.6324 27.856L67.3197 28.3803L64.425 15.6135L66.4946 15.1442L74.4772 22.4841L74.5894 22.4587L72.6162 13.7563L74.9165 13.2347ZM85.4213 20.042L84.1634 14.4939L86.42 13.9823L88.591 23.5574L86.403 24.0535L86.0171 22.3517L85.9174 22.3743C85.8228 22.9594 85.5669 23.4784 85.1496 23.9313C84.7365 24.3833 84.1704 24.6908 83.4515 24.8538C82.8239 24.9961 82.2376 24.9827 81.6923 24.8135C81.1503 24.6393 80.6835 24.3147 80.2918 23.8399C79.8992 23.3609 79.6162 22.739 79.4428 21.9743L78.0605 15.8777L80.3171 15.366L81.6203 21.1136C81.7579 21.7203 82.0334 22.1647 82.4469 22.4468C82.8604 22.7288 83.3373 22.8085 83.8776 22.686C84.21 22.6107 84.5137 22.4566 84.7887 22.2238C85.0636 21.9911 85.2646 21.6921 85.3915 21.3269C85.5216 20.9565 85.5316 20.5283 85.4213 20.042ZM90.2735 9.75275L93.1682 22.5196L90.9116 23.0313L88.0169 10.2644L90.2735 9.75275ZM94.8507 8.71494L97.7454 21.4818L95.4888 21.9935L92.5941 9.2266L94.8507 8.71494Z" fill="white"/>
</svg>
