<svg width="238" height="284" viewBox="0 0 238 284" fill="none" xmlns="http://www.w3.org/2000/svg">
<g filter="url(#filter0_d_8_46)">
<rect x="1.93428" y="0.878973" width="98.3936" height="124.263" rx="8.5" transform="matrix(0.936839 -0.349761 0.352681 0.935744 19.8122 58.7148)" fill="#113C51" stroke="#477186" stroke-width="3"/>
<g filter="url(#filter1_d_8_46)">
<rect width="70.5347" height="30.889" rx="5" transform="matrix(0.936839 -0.349761 0.352681 0.935744 61.0362 123.111)" fill="#477186"/>
<path d="M88.2573 121.887L92.8742 134.137L90.3591 135.076L82.814 129.828L82.7361 129.857L85.4008 136.927L82.4365 138.034L77.8196 125.784L80.3706 124.832L87.8574 130.088L87.9592 130.05L85.299 122.992L88.2573 121.887ZM99.103 132.009C98.1409 132.369 97.2391 132.489 96.3977 132.371C95.5588 132.248 94.8187 131.903 94.1774 131.337C93.5386 130.766 93.0351 129.992 92.6669 129.015C92.3092 128.066 92.1843 127.167 92.292 126.317C92.3983 125.463 92.7183 124.711 93.2522 124.062C93.7846 123.408 94.5139 122.908 95.4401 122.563C96.0948 122.318 96.7319 122.196 97.3515 122.197C97.9711 122.198 98.5537 122.323 99.0992 122.575C99.6447 122.826 100.138 123.204 100.578 123.708C101.017 124.208 101.379 124.835 101.663 125.589L101.938 126.318L93.9434 129.303L93.3032 127.604L98.5729 125.637C98.4517 125.327 98.2734 125.078 98.038 124.888C97.8026 124.699 97.5336 124.583 97.231 124.541C96.9308 124.494 96.6191 124.531 96.2957 124.652C95.9684 124.774 95.7027 124.957 95.4989 125.202C95.2935 125.442 95.1623 125.716 95.1052 126.024C95.0467 126.328 95.0728 126.639 95.1836 126.957L95.8351 128.685C95.9764 129.06 96.1742 129.362 96.4286 129.59C96.6815 129.814 96.973 129.953 97.3031 130.007C97.6332 130.061 97.9859 130.018 98.3611 129.878C98.6206 129.781 98.8426 129.657 99.0272 129.506C99.2117 129.356 99.3535 129.182 99.4526 128.986C99.5517 128.79 99.6009 128.576 99.6001 128.344L102.318 127.418C102.433 128.062 102.385 128.678 102.174 129.266C101.966 129.849 101.603 130.378 101.085 130.853C100.566 131.324 99.9055 131.71 99.103 132.009ZM103.795 119.58L106.451 122.041L106.879 118.428L109.832 117.326L108.994 122.879L113.39 126.478L110.462 127.571L107.623 125.151L107.126 128.816L104.156 129.925L105.096 124.334L100.825 120.688L103.795 119.58ZM116.36 114.889L117.172 117.042L111.369 119.208L110.558 117.055L116.36 114.889ZM110.944 114.4L113.872 113.307L117.075 121.806C117.143 121.986 117.226 122.121 117.324 122.211C117.424 122.297 117.539 122.343 117.669 122.349C117.798 122.351 117.94 122.323 118.095 122.265C118.207 122.223 118.321 122.169 118.437 122.103C118.556 122.031 118.644 121.975 118.702 121.936L119.941 123.882C119.816 123.974 119.638 124.097 119.405 124.253C119.176 124.406 118.889 124.557 118.543 124.704C117.869 124.992 117.25 125.132 116.687 125.124C116.126 125.11 115.638 124.947 115.224 124.633C114.814 124.318 114.495 123.847 114.269 123.222L110.944 114.4Z" fill="white"/>
</g>
<rect width="70.5347" height="30.889" rx="5" transform="matrix(0.936839 -0.349761 0.352681 0.935744 44.9131 80.3332)" fill="#477186"/>
<path d="M77.0382 77.0923L81.6551 89.342L78.6969 90.4465L75.1215 80.9601L75.0497 80.9869L72.9382 83.6857L71.9734 81.1257L74.2896 78.1185L77.0382 77.0923ZM89.5512 86.7353C88.4813 87.1347 87.4636 87.2258 86.4983 87.0085C85.5314 86.7873 84.6588 86.2784 83.8804 85.4819C83.1005 84.6814 82.4594 83.6085 81.9569 82.2632C81.4544 80.9179 81.2341 79.6992 81.2962 78.6071C81.3607 77.5095 81.6857 76.5717 82.2714 75.7936C82.8595 75.01 83.6885 74.4184 84.7584 74.019C85.8283 73.6196 86.8437 73.5225 87.8046 73.7278C88.7679 73.9276 89.6365 74.4198 90.4104 75.2044C91.1842 75.9889 91.8217 77.0519 92.3227 78.3932C92.8306 79.741 93.0554 80.9716 92.9969 82.0851C92.9384 83.1986 92.6174 84.1532 92.0337 84.9487C91.4526 85.7388 90.6251 86.3343 89.5512 86.7353ZM88.6382 84.3128C89.2769 84.0744 89.6714 83.5564 89.8217 82.7588C89.9704 81.9573 89.7881 80.8814 89.2746 79.5311C88.941 78.6459 88.5761 77.9497 88.18 77.4426C87.7825 76.9315 87.3706 76.594 86.9445 76.4301C86.5185 76.2662 86.0918 76.264 85.6647 76.4235C85.0299 76.6605 84.6379 77.173 84.4886 77.9611C84.3379 78.7451 84.51 79.7998 85.0049 81.1252C85.3391 82.0239 85.7052 82.7355 86.1033 83.2601C86.5054 83.7832 86.923 84.1299 87.356 84.3003C87.7876 84.4666 88.215 84.4708 88.6382 84.3128Z" fill="white"/>
<rect x="1.50468" y="1.49999" width="98.3936" height="124.263" rx="8.5" transform="matrix(1 0 0.00311867 0.999995 130.995 147.518)" fill="#113C51" stroke="#477186" stroke-width="3"/>
<g filter="url(#filter2_d_8_46)">
<rect width="70.5347" height="30.889" rx="5" transform="matrix(1 0 0.00311869 0.999995 146.665 222.887)" fill="#477186"/>
<path d="M172.594 231.261L172.635 244.352H169.951L164.718 236.797H164.634L164.658 244.352H161.494L161.453 231.261H164.176L169.352 238.804H169.46L169.437 231.261H172.594ZM179.215 244.537C178.188 244.537 177.301 244.335 176.554 243.93C175.811 243.521 175.238 242.939 174.835 242.185C174.437 241.427 174.236 240.525 174.232 239.481C174.229 238.467 174.427 237.581 174.825 236.822C175.223 236.059 175.786 235.467 176.513 235.045C177.241 234.619 178.099 234.406 179.087 234.406C179.786 234.406 180.426 234.515 181.006 234.732C181.586 234.949 182.088 235.271 182.511 235.697C182.934 236.123 183.264 236.65 183.5 237.276C183.737 237.898 183.856 238.612 183.859 239.417L183.861 240.197H175.328L175.322 238.382H180.947C180.942 238.049 180.862 237.753 180.708 237.493C180.554 237.233 180.342 237.031 180.073 236.886C179.808 236.737 179.503 236.662 179.158 236.662C178.809 236.662 178.496 236.741 178.219 236.899C177.943 237.052 177.724 237.263 177.563 237.532C177.402 237.796 177.318 238.096 177.31 238.433L177.316 240.28C177.317 240.681 177.397 241.032 177.556 241.335C177.714 241.633 177.939 241.865 178.229 242.032C178.519 242.198 178.865 242.281 179.265 242.281C179.542 242.281 179.794 242.243 180.019 242.166C180.245 242.089 180.438 241.976 180.6 241.827C180.761 241.678 180.882 241.495 180.962 241.277L183.833 241.36C183.715 242.004 183.455 242.564 183.052 243.042C182.653 243.515 182.128 243.883 181.476 244.147C180.825 244.407 180.071 244.537 179.215 244.537ZM187.958 234.534L189.586 237.768L191.25 234.534H194.402L191.675 239.443L194.534 244.352H191.409L189.596 241.092L187.848 244.352H184.678L187.513 239.443L184.788 234.534H187.958ZM201.37 234.534L201.378 236.835H195.184L195.177 234.534H201.37ZM196.467 232.182H199.592L199.621 241.265C199.621 241.456 199.652 241.612 199.712 241.731C199.776 241.846 199.868 241.929 199.987 241.98C200.107 242.027 200.25 242.051 200.416 242.051C200.535 242.051 200.661 242.04 200.793 242.019C200.929 241.993 201.031 241.972 201.1 241.955L201.58 244.211C201.431 244.254 201.22 244.307 200.947 244.371C200.679 244.435 200.357 244.476 199.982 244.493C199.25 244.527 198.621 244.441 198.096 244.237C197.575 244.028 197.176 243.704 196.898 243.265C196.624 242.826 196.49 242.275 196.496 241.61L196.467 232.182Z" fill="white"/>
</g>
<rect width="70.5347" height="30.889" rx="5" transform="matrix(1 0 0.00311869 0.999995 146.522 177.171)" fill="#477186"/>
<path d="M175.19 198.641C174.193 198.641 173.308 198.471 172.535 198.13C171.767 197.785 171.161 197.31 170.716 196.704C170.271 196.099 170.043 195.403 170.032 194.614H173.215C173.229 194.9 173.321 195.153 173.492 195.375C173.663 195.592 173.896 195.763 174.19 195.886C174.485 196.01 174.82 196.072 175.195 196.072C175.57 196.072 175.9 196.006 176.185 195.874C176.474 195.737 176.699 195.552 176.861 195.317C177.022 195.079 177.1 194.806 177.094 194.499C177.098 194.192 177.01 193.92 176.83 193.681C176.65 193.442 176.396 193.257 176.067 193.125C175.743 192.993 175.359 192.927 174.916 192.927H173.644L173.637 190.677H174.909C175.297 190.677 175.638 190.613 175.931 190.485C176.229 190.357 176.461 190.178 176.626 189.948C176.792 189.714 176.872 189.445 176.867 189.143C176.87 188.849 176.799 188.591 176.653 188.369C176.512 188.143 176.313 187.969 176.057 187.845C175.806 187.722 175.513 187.66 175.181 187.66C174.832 187.66 174.514 187.722 174.229 187.845C173.948 187.969 173.725 188.143 173.56 188.369C173.394 188.595 173.308 188.857 173.3 189.156H170.277C170.283 188.376 170.498 187.69 170.922 187.097C171.347 186.501 171.925 186.034 172.656 185.697C173.393 185.361 174.232 185.192 175.173 185.192C176.111 185.192 176.936 185.357 177.649 185.685C178.361 186.013 178.917 186.46 179.315 187.027C179.713 187.589 179.913 188.227 179.915 188.938C179.922 189.675 179.683 190.283 179.199 190.76C178.719 191.237 178.099 191.531 177.341 191.642L177.342 191.744C178.356 191.864 179.122 192.192 179.639 192.729C180.161 193.266 180.421 193.937 180.419 194.742C180.421 195.501 180.2 196.174 179.754 196.762C179.313 197.346 178.696 197.806 177.905 198.143C177.118 198.475 176.212 198.641 175.19 198.641ZM187.631 198.782C186.489 198.782 185.503 198.511 184.675 197.97C183.847 197.425 183.207 196.643 182.757 195.624C182.306 194.602 182.08 193.372 182.08 191.936C182.08 190.5 182.3 189.281 182.74 188.28C183.184 187.274 183.817 186.509 184.638 185.985C185.463 185.457 186.446 185.192 187.588 185.192C188.73 185.192 189.716 185.457 190.544 185.985C191.377 186.509 192.018 187.274 192.469 188.28C192.919 189.285 193.145 190.504 193.145 191.936C193.149 193.376 192.929 194.608 192.485 195.631C192.041 196.653 191.406 197.435 190.581 197.976C189.761 198.513 188.777 198.782 187.631 198.782ZM187.623 196.193C188.304 196.193 188.855 195.846 189.275 195.151C189.695 194.452 189.9 193.381 189.891 191.936C189.888 190.99 189.79 190.21 189.596 189.597C189.403 188.979 189.135 188.518 188.793 188.216C188.451 187.913 188.052 187.762 187.596 187.762C186.919 187.762 186.372 188.105 185.957 188.791C185.541 189.473 185.334 190.521 185.334 191.936C185.333 192.895 185.427 193.69 185.616 194.32C185.81 194.951 186.08 195.422 186.426 195.733C186.772 196.04 187.171 196.193 187.623 196.193Z" fill="white"/>
<rect x="1.49999" y="-1.50468" width="98.3936" height="124.263" rx="8.5" transform="matrix(0 -1 0.999995 -0.00311867 7.00466 275.299)" fill="#113C51" stroke="#477186" stroke-width="3"/>
<g filter="url(#filter3_d_8_46)">
<rect width="70.5347" height="30.889" rx="5" transform="matrix(0 -1 0.999995 -0.00311869 79.3689 259.644)" fill="#477186"/>
<path d="M87.7429 233.714L100.834 233.674V236.358L93.2784 241.591V241.674L100.834 241.651V244.815L87.7429 244.856V242.133L95.2855 236.957V236.849L87.7429 236.872V233.714ZM101.019 227.094C101.019 228.121 100.817 229.008 100.412 229.755C100.003 230.498 99.4211 231.071 98.6669 231.473C97.9084 231.872 97.0071 232.073 95.9631 232.076C94.9489 232.08 94.0625 231.882 93.304 231.484C92.5412 231.086 91.9489 230.523 91.527 229.795C91.1009 229.068 90.8878 228.21 90.8878 227.221C90.8878 226.523 90.9965 225.883 91.2138 225.303C91.4311 224.723 91.7528 224.221 92.179 223.798C92.6051 223.374 93.1314 223.045 93.7578 222.808C94.38 222.572 95.0937 222.453 95.8991 222.45L96.679 222.448V230.981L94.8636 230.987V225.362C94.5312 225.367 94.2351 225.447 93.9751 225.601C93.7152 225.755 93.5128 225.967 93.3679 226.236C93.2187 226.5 93.1442 226.805 93.1442 227.15C93.1442 227.5 93.223 227.813 93.3807 228.089C93.5341 228.366 93.745 228.585 94.0135 228.746C94.2777 228.907 94.5781 228.991 94.9148 228.999L96.7621 228.993C97.1626 228.992 97.5142 228.912 97.8167 228.753C98.115 228.595 98.3473 228.37 98.5135 228.08C98.6797 227.789 98.7628 227.444 98.7628 227.043C98.7628 226.766 98.7244 226.515 98.6477 226.29C98.571 226.064 98.4581 225.87 98.3089 225.709C98.1598 225.547 97.9765 225.427 97.7592 225.346L97.8423 222.476C98.4858 222.593 99.0461 222.854 99.5234 223.257C99.9964 223.656 100.365 224.181 100.629 224.832C100.889 225.484 101.019 226.237 101.019 227.094ZM91.0156 218.35L94.25 216.723L91.0156 215.059V211.907L95.9247 214.634L100.834 211.774V214.9L97.5738 216.713L100.834 218.46V221.631L95.9247 218.795L91.0156 221.521L91.0156 218.35ZM91.0156 204.938L93.3168 204.931V211.125L91.0156 211.132V204.938ZM88.6634 209.842V206.716L97.7464 206.688C97.9382 206.687 98.0937 206.657 98.213 206.597C98.3281 206.533 98.4112 206.441 98.4623 206.321C98.5092 206.202 98.5326 206.059 98.5326 205.893C98.5326 205.774 98.522 205.648 98.5007 205.516C98.4751 205.38 98.4538 205.277 98.4368 205.209L100.693 204.729C100.736 204.878 100.789 205.089 100.853 205.362C100.917 205.63 100.957 205.951 100.974 206.326C101.008 207.059 100.923 207.688 100.719 208.213C100.51 208.733 100.186 209.133 99.7471 209.411C99.3082 209.685 98.7564 209.819 98.0916 209.813L88.6634 209.842Z" fill="white"/>
</g>
<rect width="70.5347" height="30.889" rx="5" transform="matrix(0 -1 0.999995 -0.00311869 33.6533 259.787)" fill="#477186"/>
<path d="M54.9441 235.835L52.6686 235.842L48.4882 231.081C48.1643 230.724 47.8682 230.42 47.5997 230.169C47.327 229.919 47.0542 229.728 46.7815 229.597C46.5045 229.465 46.2041 229.4 45.8802 229.401C45.518 229.402 45.2091 229.482 44.9534 229.641C44.6935 229.799 44.4932 230.017 44.3525 230.295C44.2119 230.572 44.1416 230.89 44.1416 231.248C44.1416 231.61 44.2162 231.927 44.3653 232.199C44.5102 232.472 44.7212 232.684 44.9981 232.837C45.2751 232.985 45.6118 233.058 46.0081 233.057V236.055C45.1175 236.058 44.3483 235.86 43.7006 235.461C43.0528 235.063 42.5543 234.502 42.2048 233.778C41.8511 233.051 41.6743 232.206 41.6743 231.243C41.6743 230.25 41.8405 229.386 42.1729 228.652C42.5053 227.918 42.9697 227.35 43.5663 226.948C44.1587 226.541 44.8469 226.336 45.631 226.334C46.1295 226.332 46.6238 226.431 47.1139 226.63C47.604 226.828 48.1451 227.187 48.7375 227.705C49.3298 228.219 50.0393 228.949 50.866 229.897L52.3106 231.459L52.3937 231.458V226.153L54.9441 226.145V235.835ZM55.2637 218.942C55.2637 220.084 54.9931 221.069 54.4519 221.897C53.9065 222.726 53.1245 223.365 52.1061 223.816C51.0833 224.267 49.8539 224.492 48.4179 224.492C46.9818 224.492 45.7631 224.273 44.7616 223.832C43.756 223.388 42.991 222.756 42.4669 221.935C41.9385 221.11 41.6743 220.126 41.6743 218.984C41.6743 217.842 41.9385 216.857 42.4669 216.029C42.991 215.196 43.756 214.554 44.7616 214.104C45.7673 213.653 46.9861 213.428 48.4179 213.428C49.8582 213.423 51.0897 213.643 52.1125 214.087C53.1352 214.532 53.9171 215.166 54.4583 215.991C54.9953 216.812 55.2637 217.795 55.2637 218.942ZM52.675 218.95C52.675 218.268 52.3277 217.717 51.6331 217.298C50.9342 216.878 49.8625 216.672 48.4179 216.681C47.4719 216.684 46.692 216.782 46.0784 216.976C45.4605 217.17 45.0003 217.438 44.6977 217.779C44.3952 218.121 44.2439 218.52 44.2439 218.976C44.2439 219.654 44.5869 220.2 45.273 220.616C45.9548 221.031 47.0031 221.239 48.4179 221.239C49.3767 221.24 50.1714 221.146 50.8021 220.956C51.4328 220.763 51.9036 220.493 52.2147 220.147C52.5215 219.8 52.675 219.402 52.675 218.95Z" fill="white"/>
<rect width="65.9847" height="29.3733" rx="5" transform="matrix(1 0 0.00334209 0.999994 167 118.518)" fill="#477186"/>
<path d="M195.445 125.894L195.488 138.985L192.804 138.985L187.569 131.43L187.486 131.43L187.511 138.985L184.347 138.985L184.303 125.894L187.026 125.894L192.204 133.437L192.312 133.437L192.287 125.894L195.445 125.894ZM203.798 134.747L203.78 129.167L206.899 129.167L206.932 138.985L203.953 138.985L203.947 137.157L203.845 137.157C203.629 137.758 203.26 138.235 202.737 138.589C202.219 138.938 201.591 139.113 200.853 139.113C200.184 139.113 199.596 138.96 199.088 138.653C198.58 138.346 198.184 137.918 197.901 137.368C197.618 136.814 197.473 136.166 197.466 135.425L197.445 129.167L200.571 129.167L200.59 134.811C200.596 135.344 200.738 135.764 201.016 136.071C201.294 136.377 201.671 136.531 202.149 136.531C202.46 136.531 202.739 136.463 202.985 136.326C203.236 136.186 203.434 135.983 203.578 135.719C203.726 135.451 203.8 135.127 203.798 134.747ZM212.003 125.894L212.047 138.985L208.921 138.985L208.878 125.894L212.003 125.894ZM217.119 125.894L217.162 138.985L214.037 138.985L213.993 125.894L217.119 125.894Z" fill="white"/>
<rect width="65.9847" height="29.3733" rx="5" transform="matrix(0.649986 0.759946 -0.757769 0.652522 154.258 51.5182)" fill="#477186"/>
<path d="M167.141 77.9291L157.221 86.4713L155.476 84.4311L157.816 75.542L157.762 75.4789L152.036 80.409L149.98 78.0044L159.9 69.4623L161.67 71.5317L159.303 80.3686L159.373 80.4512L165.089 75.5295L167.141 77.9291ZM165.843 90.0317L170.072 86.3905L172.099 88.761L164.659 95.1676L162.723 92.904L164.109 91.7111L164.042 91.6333C163.446 91.8602 162.843 91.8899 162.234 91.7224C161.632 91.5553 161.091 91.1917 160.611 90.6314C160.177 90.123 159.911 89.576 159.813 88.9904C159.716 88.4048 159.785 87.8258 160.018 87.2534C160.255 86.6782 160.653 86.147 161.213 85.66L165.954 81.5766L167.986 83.952L163.709 87.6349C163.308 87.9857 163.082 88.3665 163.029 88.7772C162.977 89.1879 163.106 89.5746 163.416 89.9373C163.618 90.1737 163.851 90.3413 164.115 90.4402C164.385 90.5395 164.667 90.558 164.962 90.4957C165.262 90.4339 165.556 90.2792 165.843 90.0317ZM177.904 90.5128L167.984 99.0549L165.953 96.6795L175.872 88.1374L177.904 90.5128ZM181.229 94.4001L171.309 102.942L169.277 100.567L179.197 92.0247L181.229 94.4001Z" fill="white"/>
</g>
<rect width="65.9847" height="29.3733" rx="5" transform="matrix(0.936855 -0.349717 0.352846 0.935681 32.9488 23.076)" fill="#477186"/>
<path d="M62.177 20.0388L66.7961 32.2878L64.281 33.2266L56.7345 27.979L56.6567 28.0081L59.3226 35.0775L56.3583 36.1841L51.7392 23.9351L54.2903 22.9829L61.7783 28.2386L61.8801 28.2006L59.2188 21.1431L62.177 20.0388ZM73.0992 25.4113L71.1302 20.19L74.0526 19.0991L77.5169 28.2858L74.7263 29.3275L74.0812 27.617L73.9854 27.6527C73.9938 28.2909 73.8149 28.8672 73.4487 29.3814C73.0849 29.8902 72.5577 30.2735 71.867 30.5313C71.2402 30.7653 70.6352 30.8274 70.0518 30.7177C69.4685 30.6079 68.9481 30.345 68.4906 29.929C68.0317 29.509 67.6694 28.9529 67.4038 28.2606L65.1957 22.4053L68.124 21.3122L70.1156 26.5933C70.3075 27.0902 70.5874 27.4338 70.9551 27.624C71.3229 27.8142 71.7303 27.8259 72.1775 27.659C72.4689 27.5502 72.7063 27.3888 72.8898 27.1748C73.0757 26.9553 73.1899 26.6966 73.2324 26.3987C73.2774 26.0953 73.233 25.7662 73.0992 25.4113ZM77.6901 14.248L82.3091 26.4969L79.3808 27.59L74.7617 15.3411L77.6901 14.248ZM82.4823 12.4591L87.1014 24.708L84.173 25.8012L79.5539 13.5522L82.4823 12.4591Z" fill="white"/>
<defs>
<filter id="filter0_d_8_46" x="0" y="25.3808" width="237.066" height="257.897" filterUnits="userSpaceOnUse" color-interpolation-filters="sRGB">
<feFlood flood-opacity="0" result="BackgroundImageFix"/>
<feColorMatrix in="SourceAlpha" type="matrix" values="0 0 0 0 0 0 0 0 0 0 0 0 0 0 0 0 0 0 127 0" result="hardAlpha"/>
<feOffset dy="4"/>
<feGaussianBlur stdDeviation="2"/>
<feComposite in2="hardAlpha" operator="out"/>
<feColorMatrix type="matrix" values="0 0 0 0 0 0 0 0 0 0 0 0 0 0 0 0 0 0 0.25 0"/>
<feBlend mode="normal" in2="BackgroundImageFix" result="effect1_dropShadow_8_46"/>
<feBlend mode="normal" in="SourceGraphic" in2="effect1_dropShadow_8_46" result="shape"/>
</filter>
<filter id="filter1_d_8_46" x="62.4773" y="99.8724" width="74.0914" height="50.7119" filterUnits="userSpaceOnUse" color-interpolation-filters="sRGB">
<feFlood flood-opacity="0" result="BackgroundImageFix"/>
<feColorMatrix in="SourceAlpha" type="matrix" values="0 0 0 0 0 0 0 0 0 0 0 0 0 0 0 0 0 0 127 0" result="hardAlpha"/>
<feOffset/>
<feComposite in2="hardAlpha" operator="out"/>
<feColorMatrix type="matrix" values="0 0 0 0 0 0 0 0 0 0 0 0 0 0 0 0 0 0 0.25 0"/>
<feBlend mode="normal" in2="BackgroundImageFix" result="effect1_dropShadow_8_46"/>
<feBlend mode="normal" in="SourceGraphic" in2="effect1_dropShadow_8_46" result="shape"/>
</filter>
<filter id="filter2_d_8_46" x="146.68" y="222.887" width="70.5999" height="30.8889" filterUnits="userSpaceOnUse" color-interpolation-filters="sRGB">
<feFlood flood-opacity="0" result="BackgroundImageFix"/>
<feColorMatrix in="SourceAlpha" type="matrix" values="0 0 0 0 0 0 0 0 0 0 0 0 0 0 0 0 0 0 127 0" result="hardAlpha"/>
<feOffset/>
<feComposite in2="hardAlpha" operator="out"/>
<feColorMatrix type="matrix" values="0 0 0 0 0 0 0 0 0 0 0 0 0 0 0 0 0 0 0.25 0"/>
<feBlend mode="normal" in2="BackgroundImageFix" result="effect1_dropShadow_8_46"/>
<feBlend mode="normal" in="SourceGraphic" in2="effect1_dropShadow_8_46" result="shape"/>
</filter>
<filter id="filter3_d_8_46" x="79.3689" y="189.029" width="30.8889" height="70.5999" filterUnits="userSpaceOnUse" color-interpolation-filters="sRGB">
<feFlood flood-opacity="0" result="BackgroundImageFix"/>
<feColorMatrix in="SourceAlpha" type="matrix" values="0 0 0 0 0 0 0 0 0 0 0 0 0 0 0 0 0 0 127 0" result="hardAlpha"/>
<feOffset/>
<feComposite in2="hardAlpha" operator="out"/>
<feColorMatrix type="matrix" values="0 0 0 0 0 0 0 0 0 0 0 0 0 0 0 0 0 0 0.25 0"/>
<feBlend mode="normal" in2="BackgroundImageFix" result="effect1_dropShadow_8_46"/>
<feBlend mode="normal" in="SourceGraphic" in2="effect1_dropShadow_8_46" result="shape"/>
</filter>
</defs>
</svg>
